<?xml version="1.0" standalone="no"?>
<!DOCTYPE svg PUBLIC "-//W3C//DTD SVG 20010904//EN"
 "http://www.w3.org/TR/2001/REC-SVG-20010904/DTD/svg10.dtd">
<svg version="1.0" xmlns="http://www.w3.org/2000/svg"
 width="1536.000000pt" height="1536.000000pt" viewBox="0 0 1536.000000 1536.000000"
 preserveAspectRatio="xMidYMid meet">

<g transform="translate(0.000000,1536.000000) scale(0.100000,-0.100000)"
fill="#000000" stroke="none">
<path d="M7400 14650 c-1126 -69 -2222 -416 -3173 -1004 -1103 -681 -2065
-1782 -2602 -2976 -479 -1064 -673 -2202 -579 -3388 68 -861 307 -1716 693
-2478 171 -338 303 -565 466 -799 58 -82 120 -172 139 -200 122 -175 381 -479
606 -709 379 -387 726 -678 1112 -929 126 -82 197 -126 428 -262 161 -96 550
-277 850 -397 410 -165 1005 -318 1480 -382 311 -42 437 -50 815 -49 920 0
1597 116 2550 435 602 201 1182 501 1670 863 742 550 1369 1280 1867 2174 222
399 373 741 514 1169 262 794 355 1346 355 2117 0 317 -6 444 -31 765 -14 170
-24 236 -64 440 -125 627 -343 1285 -606 1825 -253 522 -511 930 -839 1325
-550 665 -1088 1131 -1763 1526 -276 162 -661 351 -945 465 -177 71 -566 199
-753 248 -376 98 -748 163 -1155 201 -252 24 -794 34 -1035 20z m803 -367 c-7
-2 -19 -2 -25 0 -7 3 -2 5 12 5 14 0 19 -2 13 -5z m-90 -10 c-7 -2 -19 -2 -25
0 -7 3 -2 5 12 5 14 0 19 -2 13 -5z m-488 -53 c-3 -5 -18 -9 -33 -9 l-27 1 30
8 c17 4 31 8 33 9 2 0 0 -3 -3 -9z m178 3 c-7 -2 -21 -2 -30 0 -10 3 -4 5 12
5 17 0 24 -2 18 -5z m-110 -20 c-7 -2 -21 -2 -30 0 -10 3 -4 5 12 5 17 0 24
-2 18 -5z m-88 -13 c-3 -5 -14 -10 -23 -9 -14 0 -13 2 3 9 27 11 27 11 20 0z
m-400 -20 c3 -5 1 -10 -4 -10 -6 0 -11 5 -11 10 0 6 2 10 4 10 3 0 8 -4 11
-10z m105 -15 c0 -7 -30 -13 -34 -7 -3 4 4 9 15 9 10 1 19 0 19 -2z m175 -5
c-11 -5 -27 -9 -35 -9 -9 0 -8 4 5 9 11 5 27 9 35 9 9 0 8 -4 -5 -9z m-161
-29 c19 -7 19 -8 -2 -13 -12 -4 -20 -2 -17 2 3 5 -5 11 -17 13 -19 4 -20 4 -3
5 11 0 29 -3 39 -7z m59 2 c-7 -2 -19 -2 -25 0 -7 3 -2 5 12 5 14 0 19 -2 13
-5z m-126 -9 c-3 -3 -12 -4 -19 -1 -8 3 -5 6 6 6 11 1 17 -2 13 -5z m-224 -41
c-7 -2 -21 -2 -30 0 -10 3 -4 5 12 5 17 0 24 -2 18 -5z m107 3 c0 -2 -7 -7
-16 -10 -8 -3 -12 -2 -9 4 6 10 25 14 25 6z m60 -10 c-7 -7 -13 -7 -20 0 -6 6
-3 10 10 10 13 0 16 -4 10 -10z m-153 -23 c0 -18 -27 -25 -43 -12 -21 17 -17
24 14 24 16 0 29 -5 29 -12z m107 7 c-25 -10 -101 -11 -86 -1 5 3 32 6 58 7
32 1 41 -2 28 -6z m-159 -40 c-3 -4 1 -11 7 -14 7 -3 2 -3 -11 0 -15 4 -21 2
-17 -4 3 -6 -4 -14 -16 -18 -13 -3 -49 -19 -82 -35 -56 -28 -89 -39 -53 -18
23 14 22 25 -5 32 -12 4 -19 9 -15 13 3 4 19 2 34 -5 23 -9 37 -8 78 8 28 11
44 20 37 21 -7 0 -27 -6 -45 -13 -27 -11 -36 -11 -57 1 l-25 14 25 -6 c29 -6
99 12 118 31 14 14 36 8 27 -7z m92 14 c-3 -3 -12 -4 -19 -1 -8 3 -5 6 6 6 11
1 17 -2 13 -5z m-820 -30 c-3 -3 -12 -4 -19 -1 -8 3 -5 6 6 6 11 1 17 -2 13
-5z m103 -14 c0 -5 -7 -10 -15 -10 -8 0 -15 -7 -15 -15 0 -8 -12 -17 -27 -20
-16 -3 -48 -12 -73 -19 -25 -8 -60 -17 -77 -21 -18 -4 -35 -11 -38 -16 -4 -5
-16 -9 -29 -9 -12 0 -26 -4 -31 -8 -6 -4 -37 -18 -70 -31 -33 -12 -71 -27 -85
-33 -30 -13 -45 -19 -130 -54 -36 -14 -116 -51 -179 -80 -62 -30 -124 -57
-137 -60 -13 -4 -26 -10 -29 -14 -3 -5 -33 -23 -68 -39 -34 -17 -71 -37 -82
-44 -60 -37 -103 -68 -130 -91 -16 -14 -34 -26 -38 -26 -5 0 -5 -5 -1 -12 4
-7 3 -8 -5 -4 -7 5 -24 -5 -41 -24 -17 -19 -34 -29 -41 -24 -8 5 -9 3 -4 -6 6
-10 4 -12 -9 -7 -10 4 -15 3 -11 -3 4 -6 0 -17 -7 -25 -7 -8 -22 -26 -33 -41
-11 -15 -58 -67 -103 -118 -135 -147 -262 -309 -262 -334 0 -6 -7 -12 -15 -16
-8 -3 -15 -11 -15 -18 0 -7 16 4 35 24 19 21 36 32 38 25 3 -7 10 1 16 16 13
32 31 27 31 -9 0 -13 5 -24 10 -24 6 0 10 -18 10 -40 0 -23 -5 -40 -11 -40 -6
0 -9 -6 -6 -14 4 -10 -5 -16 -31 -19 -20 -3 -57 -10 -82 -16 -25 -6 -56 -14
-70 -17 -14 -3 -26 -9 -28 -15 -2 -5 -12 -9 -22 -9 -10 0 -21 -4 -25 -10 -3
-5 -32 -23 -64 -40 -32 -17 -72 -44 -90 -60 -18 -17 -36 -30 -40 -30 -14 0
-166 -151 -163 -162 1 -5 -7 -12 -18 -15 -11 -3 -17 -9 -14 -14 3 -5 -2 -6
-10 -3 -11 4 -16 0 -16 -11 0 -9 -4 -13 -10 -10 -5 3 -10 0 -10 -8 0 -8 -15
-30 -32 -49 -46 -48 -115 -153 -204 -308 -20 -36 -44 -74 -53 -85 -9 -11 43
38 116 110 72 71 129 133 126 138 -2 4 0 6 5 5 14 -4 74 41 67 51 -2 5 3 15
13 22 15 13 16 12 3 -3 -23 -30 -2 -20 57 27 31 25 62 49 67 53 6 4 18 11 27
15 15 5 16 3 7 -21 -10 -26 -10 -26 10 -7 13 11 21 14 21 6 0 -14 49 23 122
90 88 83 210 179 225 179 5 0 26 16 46 35 20 19 41 35 46 35 5 0 13 9 16 21 4
11 18 25 31 31 13 6 24 17 24 24 0 7 14 15 30 19 17 4 30 11 30 16 0 5 6 9 13
9 17 0 59 35 51 42 -2 3 9 8 26 12 21 4 29 10 24 18 -5 8 -2 9 9 5 11 -4 22 1
29 13 7 11 18 20 24 20 6 0 36 18 67 40 32 22 57 36 57 32 1 -4 6 3 13 14 15
26 74 77 96 82 9 3 30 5 48 6 18 0 28 5 24 9 -10 10 -39 11 -70 1 -17 -5 -22
-4 -17 4 14 22 -31 12 -58 -13 -26 -24 -32 -21 -20 9 3 9 11 16 18 16 7 0 30
18 51 41 22 22 56 50 75 62 19 12 44 29 54 39 11 10 26 18 33 18 7 0 13 3 13
8 0 6 47 32 125 67 41 19 122 42 167 49 35 4 37 3 49 -32 16 -51 25 -59 46
-39 25 22 195 98 253 111 8 2 39 13 69 25 31 12 66 18 80 15 18 -4 22 -3 13 4
-10 7 9 15 65 31 44 11 87 21 97 21 9 0 38 9 64 19 40 16 133 36 267 56 22 3
20 2 -7 -6 -21 -6 -38 -15 -38 -20 0 -5 -10 -9 -22 -9 -27 0 -51 -14 -47 -26
1 -5 -11 -13 -27 -18 -40 -12 -47 -15 -64 -24 -22 -13 -140 -53 -175 -59 -16
-3 -35 -13 -41 -21 -7 -9 -19 -13 -32 -10 -12 4 -20 1 -19 -5 1 -5 -50 -32
-113 -59 -166 -70 -528 -251 -645 -321 -143 -86 -480 -309 -495 -328 -3 -3
-23 -19 -45 -35 -45 -32 -232 -181 -253 -202 -8 -7 -29 -24 -49 -39 -75 -57
-448 -425 -505 -498 -36 -46 -76 -84 -81 -78 -3 3 -3 -4 0 -16 3 -12 1 -21 -4
-21 -5 0 -33 -31 -62 -70 -30 -38 -57 -70 -61 -70 -4 0 -12 -11 -18 -24 -13
-28 -35 -57 -78 -103 -18 -18 -34 -40 -38 -48 -3 -8 -10 -15 -15 -15 -6 0 -8
7 -5 15 4 8 2 15 -4 15 -12 0 -99 -122 -113 -157 -5 -14 -13 -22 -18 -19 -8 6
-117 -147 -187 -264 -182 -301 -343 -723 -458 -1200 -149 -612 -175 -1284 -76
-1956 66 -450 235 -983 439 -1389 l20 -40 -6 35 c-3 19 -9 37 -13 40 -20 15
-26 43 -16 76 14 43 28 45 15 2 -11 -40 -11 -48 -1 -48 4 0 13 14 20 32 6 17
14 29 18 26 3 -3 -2 -20 -11 -37 -14 -28 -13 -35 8 -32 4 0 7 -6 7 -14 0 -9 6
-12 16 -8 15 5 16 2 9 -23 -5 -16 -8 -41 -7 -56 1 -15 -3 -30 -8 -33 -4 -3 -7
15 -5 40 1 25 1 45 0 45 -2 0 -8 -14 -14 -30 -7 -23 -7 -29 1 -24 8 5 9 2 5
-9 -7 -19 11 -67 26 -67 5 0 4 7 -3 15 -7 9 -10 19 -6 22 11 12 25 -19 21 -47
-4 -31 39 -109 49 -88 3 7 4 3 2 -10 -2 -12 -1 -20 3 -17 12 7 51 -24 51 -41
0 -8 7 -26 16 -40 9 -13 14 -27 11 -30 -2 -3 -14 15 -26 40 -12 24 -29 47 -37
50 -11 4 -10 -1 4 -22 10 -15 40 -60 66 -100 33 -51 52 -72 62 -68 9 4 14 0
12 -8 -2 -8 8 -32 22 -55 26 -42 44 -55 33 -23 -5 14 -3 14 10 -3 8 -10 12
-26 9 -34 -4 -10 -1 -12 8 -6 10 6 12 4 7 -8 -3 -10 -2 -17 3 -17 14 0 12 12
-5 53 -19 46 -19 63 0 43 8 -8 15 -20 15 -26 0 -6 6 -10 13 -7 6 2 11 11 9 21
-2 9 4 16 13 16 8 0 15 9 15 20 0 11 -7 20 -15 20 -9 0 -12 -6 -9 -15 4 -8 2
-15 -4 -15 -5 0 -12 18 -16 40 -4 26 -11 40 -21 40 -24 0 -30 -4 -27 -17 2 -7
-2 -13 -9 -13 -7 0 -9 9 -6 21 4 14 -2 28 -19 44 -29 27 -30 30 -4 32 11 1 22
-6 25 -17 3 -10 14 -20 24 -23 18 -4 18 -3 -1 30 -11 19 -34 47 -49 63 -17 17
-29 39 -29 55 0 15 -4 24 -10 20 -6 -3 -18 1 -27 10 -14 14 -14 21 -4 37 10
17 9 25 -11 51 -21 29 -50 83 -78 147 -6 14 -22 43 -35 65 -13 22 -27 48 -31
57 -3 10 -10 16 -14 13 -4 -2 -17 16 -29 40 -12 25 -26 45 -31 45 -5 0 -5 11
2 24 6 14 7 33 3 43 -5 10 -7 26 -6 36 1 9 -3 17 -8 17 -6 0 -11 -6 -11 -14 0
-8 -4 -17 -8 -20 -8 -5 -7 58 2 80 2 6 0 17 -5 25 -6 10 -9 7 -9 -13 0 -69
-27 -23 -47 82 -2 13 -8 27 -13 30 -5 3 -8 12 -8 20 3 38 -3 70 -12 70 -5 0
-7 -8 -4 -17 5 -14 4 -15 -4 -4 -5 7 -9 44 -8 82 0 38 -2 69 -6 69 -4 0 -4 12
-2 27 6 30 -14 113 -26 113 -13 0 -21 32 -11 44 11 14 8 53 -6 81 -6 11 -7 42
-4 70 l6 50 44 -145 c24 -80 56 -173 72 -207 16 -34 29 -65 29 -67 0 -9 79
-178 95 -206 13 -21 71 -132 133 -255 9 -16 18 -32 22 -35 3 -3 12 -19 19 -37
7 -18 20 -38 28 -45 8 -6 28 -38 44 -70 16 -32 33 -58 38 -58 5 0 14 -13 21
-30 7 -16 16 -30 21 -30 5 0 9 -6 9 -12 0 -7 32 -55 70 -106 39 -50 70 -94 70
-97 0 -3 7 -13 15 -22 9 -10 38 -52 65 -93 27 -41 65 -93 85 -115 19 -22 35
-43 35 -46 0 -4 26 -38 58 -76 31 -38 64 -80 72 -92 14 -21 124 -165 153 -201
18 -22 97 -149 97 -156 0 -5 59 -93 70 -104 3 -3 21 -25 40 -50 62 -80 62 -81
78 -67 12 10 14 8 9 -8 -6 -20 25 -49 111 -102 20 -12 43 -30 51 -40 21 -25
88 -67 186 -118 94 -49 125 -66 145 -81 8 -7 26 -15 40 -19 14 -4 61 -25 105
-45 150 -70 196 -90 210 -90 9 0 35 -9 59 -21 42 -19 100 -38 191 -60 21 -6
53 -16 70 -23 67 -29 192 -57 325 -73 25 -3 47 -9 50 -13 9 -12 69 -20 75 -10
3 6 12 10 18 10 7 0 7 -4 -2 -9 -20 -13 7 -18 124 -25 61 -4 85 -3 75 4 -10 7
41 10 160 11 104 1 161 5 140 9 l-35 7 37 2 c20 0 40 -3 43 -9 3 -5 19 -10 35
-10 16 0 32 -4 35 -10 3 -5 27 -10 53 -9 33 1 40 3 24 7 -13 4 19 7 70 8 137
1 364 46 558 111 79 26 184 65 217 79 17 8 33 14 36 14 2 0 38 15 78 34 41 18
76 33 79 33 3 0 24 12 47 26 24 15 46 27 50 27 19 0 198 118 198 130 0 8 12
14 29 15 15 0 34 8 41 18 6 9 29 24 49 32 33 14 36 18 24 33 -12 15 -11 16 5
3 12 -10 21 -11 28 -4 7 7 2 13 -18 17 -17 5 -29 3 -31 -3 -2 -6 -11 -11 -20
-11 -12 0 -13 -3 -5 -8 9 -6 7 -11 -7 -20 -16 -10 -18 -9 -14 3 8 19 -6 19
-34 -1 -12 -8 -20 -20 -17 -25 3 -5 -1 -6 -10 -3 -9 4 -23 0 -33 -7 -26 -21
-272 -149 -286 -149 -3 0 -29 -11 -58 -24 -29 -13 -72 -30 -95 -36 -24 -7 -40
-17 -36 -23 3 -6 1 -7 -4 -4 -6 4 -39 -5 -74 -19 -35 -13 -80 -29 -99 -33 -19
-5 -78 -20 -130 -34 -52 -14 -144 -32 -205 -41 -60 -9 -126 -19 -145 -22 -19
-3 -158 -8 -307 -11 -150 -3 -270 -9 -268 -13 3 -5 18 -7 35 -6 16 1 30 -1 30
-6 0 -14 -57 -9 -70 7 -8 10 -30 15 -62 15 -27 0 -47 4 -44 9 5 7 -104 23
-181 25 -17 1 -29 4 -26 8 2 5 -8 9 -24 9 -15 1 -41 3 -58 6 -16 3 -40 6 -52
7 -13 0 -23 4 -23 9 0 4 -9 7 -20 7 -30 0 -146 32 -320 90 -138 45 -197 71
-410 182 -30 15 -58 28 -63 28 -5 0 -15 7 -24 16 -9 8 -22 13 -30 10 -8 -3
-11 -1 -8 4 4 6 -15 20 -42 33 -26 12 -62 32 -80 45 -17 12 -38 19 -46 16 -8
-3 -18 -1 -22 5 -4 7 1 9 12 5 13 -4 10 1 -7 15 -39 33 -44 36 -57 37 -29 2
-33 5 -31 17 2 6 -5 11 -14 11 -10 -1 -16 2 -13 6 6 10 -20 32 -28 23 -4 -3
-7 -1 -7 5 0 7 -16 20 -35 29 -19 9 -35 20 -35 25 0 4 -4 8 -10 8 -13 0 -174
159 -168 166 3 3 34 -19 69 -49 103 -87 278 -211 364 -257 146 -79 278 -141
292 -136 8 3 12 2 9 -3 -5 -7 34 -27 117 -60 15 -6 37 -11 47 -11 11 0 20 -4
20 -10 0 -5 23 -16 52 -25 64 -19 66 -19 42 1 -18 15 -18 15 11 9 37 -8 43
-14 26 -24 -10 -6 -9 -10 4 -14 10 -4 14 -3 9 4 -4 8 1 9 16 4 12 -4 38 -7 59
-7 31 0 33 -2 14 -9 -26 -9 -29 -15 -10 -17 6 0 23 -4 37 -8 22 -7 24 -6 11 9
-14 18 -5 22 18 8 7 -5 10 -14 7 -20 -4 -6 -4 -11 1 -9 4 1 34 -6 66 -15 92
-28 292 -66 432 -83 159 -19 550 -22 720 -5 502 50 933 195 1375 462 316 190
579 424 779 691 57 76 107 135 112 132 5 -3 6 3 2 12 -5 14 -3 16 13 10 15 -6
16 -5 7 5 -10 10 -7 19 12 45 14 18 25 36 25 39 0 4 8 19 19 33 48 69 174 313
230 447 57 137 58 139 61 150 2 6 14 42 27 80 99 290 140 635 114 955 -14 157
-43 336 -66 403 -8 23 -15 50 -15 60 0 24 -73 240 -103 307 -14 30 -32 72 -41
93 -8 21 -20 36 -26 32 -5 -3 -7 0 -4 8 5 14 -35 96 -62 128 -8 8 -14 20 -14
26 0 5 -11 22 -25 37 -13 14 -22 26 -19 26 6 0 -62 96 -107 151 -17 21 -36 36
-42 32 -6 -4 -7 -1 -2 6 9 16 -104 131 -246 251 -142 120 -206 162 -233 155
-15 -5 -17 -3 -8 3 19 13 -141 107 -165 97 -10 -3 -14 -3 -10 2 5 4 -54 38
-130 76 -78 38 -124 66 -106 63 43 -7 265 -90 337 -127 32 -17 65 -28 73 -25
8 3 12 2 9 -3 -3 -5 34 -32 82 -60 130 -76 251 -171 391 -306 68 -66 122 -112
118 -102 -4 11 -3 16 4 12 6 -4 8 -14 5 -22 -8 -19 12 -45 27 -36 5 3 7 2 4
-4 -4 -6 14 -37 39 -69 62 -80 61 -79 79 -64 19 16 20 6 1 -12 -12 -12 -8 -24
22 -77 26 -47 37 -59 44 -49 7 9 8 6 4 -11 -5 -25 14 -71 43 -105 9 -11 10
-16 4 -12 -9 5 -11 2 -7 -8 3 -9 11 -13 17 -9 5 3 7 1 4 -4 -9 -14 37 -136 47
-126 4 4 4 0 1 -9 -4 -9 -1 -26 5 -38 6 -12 13 -29 15 -39 2 -10 12 -49 23
-87 62 -210 96 -467 90 -682 -2 -72 0 -125 4 -119 4 7 8 -13 8 -43 0 -30 -4
-50 -8 -44 -8 13 -7 -214 1 -256 2 -14 2 -17 0 -7 -6 25 -23 21 -24 -5 0 -22
-1 -22 -9 -3 -8 19 -9 19 -9 -2 -1 -12 -5 -25 -11 -28 -5 -3 -10 -12 -10 -18
0 -7 4 -6 10 3 6 9 10 10 10 3 0 -6 3 -20 6 -30 3 -10 2 -14 -3 -8 -25 31 -39
7 -34 -60 1 -15 0 -17 -7 -7 -7 11 -12 6 -20 -16 -9 -27 -8 -30 6 -25 14 6 14
4 -1 -17 -12 -17 -17 -45 -17 -90 -1 -49 -3 -61 -11 -47 -5 9 -7 22 -4 27 3 6
1 10 -5 10 -6 0 -11 -10 -10 -22 3 -34 1 -44 -8 -31 -4 6 -7 -9 -8 -33 -1 -31
3 -44 11 -40 6 2 11 -5 11 -17 -1 -13 6 -23 18 -25 14 -3 17 0 12 13 -3 10 2
29 15 46 11 16 18 37 15 46 -3 10 -1 25 4 33 8 12 10 10 10 -10 1 -24 1 -24
15 -6 8 11 15 14 15 8 0 -7 5 -12 10 -12 6 0 10 9 10 20 0 18 9 46 32 95 4 11
12 43 17 70 16 90 33 170 41 190 45 112 70 543 45 785 -16 164 -63 365 -105
455 -5 11 -19 46 -31 78 -15 41 -25 57 -35 53 -17 -7 -19 10 -1 18 6 3 2 3 -9
1 -14 -4 -24 0 -28 10 -3 9 -2 13 3 10 26 -15 18 23 -16 81 -53 91 -55 95 -80
131 -13 17 -23 37 -23 45 0 11 -2 11 -9 0 -7 -11 -10 -10 -15 3 -3 9 -4 21 0
26 3 5 0 9 -6 9 -6 0 -15 11 -20 25 -5 14 -17 25 -26 25 -11 0 -14 5 -10 16 4
11 -1 18 -14 21 -11 3 -20 11 -20 17 0 14 -71 98 -152 179 -32 31 -58 61 -58
65 -1 4 -21 23 -46 42 -57 44 -82 65 -114 94 -44 39 -150 107 -159 101 -5 -3
-12 4 -16 15 -4 11 -23 27 -43 36 -20 8 -39 19 -42 23 -8 13 -224 120 -299
148 -109 41 -155 54 -174 49 -9 -2 -15 0 -11 5 3 5 -3 9 -14 9 -24 0 -185 40
-192 47 -17 19 218 -21 390 -66 219 -57 513 -201 695 -340 341 -260 588 -560
775 -941 93 -189 134 -311 174 -519 47 -241 59 -363 59 -601 1 -600 -101
-1063 -334 -1520 -204 -401 -558 -824 -935 -1115 -205 -159 -521 -364 -679
-441 -134 -65 -357 -159 -425 -179 -14 -4 -31 -12 -39 -18 -7 -6 -21 -12 -30
-12 -9 -1 -26 -2 -39 -3 -15 -1 -21 -6 -16 -14 4 -6 3 -8 -3 -5 -6 4 -48 -5
-94 -19 -120 -38 -409 -111 -509 -130 -402 -75 -994 -68 -1438 17 -56 11 -108
17 -114 13 -6 -4 -8 -3 -5 3 4 6 -18 15 -51 23 -78 17 -344 109 -472 163 -268
113 -593 297 -819 465 -59 44 -243 194 -281 229 -19 18 -41 31 -48 28 -7 -3
-10 0 -7 5 3 5 -26 40 -66 77 -85 81 -254 254 -330 338 -30 33 -59 59 -66 59
-7 -1 -10 2 -7 7 8 13 -66 100 -79 92 -6 -4 -7 -1 -2 7 4 7 3 15 -2 19 -5 3
-40 45 -77 94 -38 49 -72 84 -78 81 -7 -4 -8 -2 -4 5 4 6 -18 46 -50 93 -32
45 -109 163 -170 262 -62 100 -119 188 -126 196 -7 8 -12 16 -10 18 7 7 -42
81 -51 75 -6 -3 -7 -1 -3 5 6 10 -38 103 -92 197 -6 11 -39 79 -74 152 -41 86
-65 128 -71 120 -5 -7 -6 -3 -2 10 4 13 0 35 -9 50 -36 66 -186 492 -186 529
0 16 -2 17 -11 4 -9 -12 -10 -12 -5 4 4 10 -7 66 -23 125 -52 185 -118 539
-141 751 -5 47 -14 123 -20 170 -16 131 -24 730 -12 925 18 276 72 647 128
866 7 30 15 64 17 75 25 136 186 590 286 807 17 38 28 73 25 79 -4 7 -2 8 4 4
14 -9 35 40 25 57 -3 7 -2 9 2 4 8 -6 52 70 59 99 1 7 7 18 13 25 23 30 63
121 56 131 -3 6 -1 8 5 5 5 -4 21 12 35 35 48 82 67 118 62 118 -2 0 7 12 21
27 14 15 22 33 20 40 -3 7 -1 12 4 10 9 -2 130 168 130 184 0 5 5 9 12 9 6 0
9 2 6 5 -3 3 8 20 24 38 16 18 59 73 96 123 37 51 90 118 118 150 29 33 86 99
128 147 122 140 185 205 540 551 28 27 45 46 39 42 -9 -5 -11 -2 -6 9 5 13 7
14 14 3 7 -10 16 -5 38 20 16 17 33 32 39 32 6 0 14 4 17 10 4 6 -1 7 -12 3
-15 -6 -16 -5 -3 9 8 9 18 14 23 11 4 -2 14 3 22 11 9 8 36 30 60 47 24 18 42
36 39 41 -3 5 -1 7 4 6 6 -2 42 23 81 55 39 31 73 57 76 57 3 0 33 23 67 51
35 28 70 54 78 57 24 11 135 86 138 95 2 4 8 7 13 7 5 0 39 19 76 42 110 67
521 278 543 278 5 0 10 5 10 10 0 6 7 10 15 10 8 0 34 11 57 24 24 13 49 21
57 18 8 -3 11 0 7 7 -4 6 -1 11 6 11 7 0 46 13 85 30 40 16 89 32 108 36 20 3
35 12 35 20 0 10 7 13 25 8 14 -3 42 -3 63 1 35 8 36 8 12 16 -20 7 -17 7 11
4 44 -6 72 3 65 21 -4 10 2 12 25 7 18 -3 34 -1 38 5 3 6 22 14 41 17 83 13
146 29 160 39 8 7 38 11 65 10 28 -1 57 2 65 7 19 11 20 11 20 -1z m340 -90
c-24 -15 -37 -11 -16 5 11 8 22 12 25 9 3 -3 -1 -9 -9 -14z m10 -18 c0 -4 -8
-12 -18 -17 -70 -38 -72 -39 -85 -26 -9 10 -8 11 5 6 10 -4 32 4 55 19 42 29
43 29 43 18z m-121 -56 c10 -12 8 -14 -11 -9 -18 4 -20 3 -8 -6 8 -6 10 -11 4
-11 -16 0 -23 10 -17 26 7 18 17 18 32 0z m-95 -71 c-10 -8 -24 -15 -30 -15
-6 0 -17 -7 -24 -15 -7 -8 -17 -15 -22 -15 -12 0 41 45 62 53 28 10 34 7 14
-8z m153 -111 c-3 -3 -12 -4 -19 -1 -8 3 -5 6 6 6 11 1 17 -2 13 -5z m-150
-20 c-3 -3 -12 -4 -19 -1 -8 3 -5 6 6 6 11 1 17 -2 13 -5z m-237 -18 c0 -2 -7
-7 -16 -10 -8 -3 -12 -2 -9 4 6 10 25 14 25 6z m95 -16 c-3 -5 -10 -10 -16
-10 -5 0 -9 5 -9 10 0 6 7 10 16 10 8 0 12 -4 9 -10z m-68 -16 c-3 -3 -12 -4
-19 -1 -8 3 -5 6 6 6 11 1 17 -2 13 -5z m2124 -24 c79 -6 149 -12 154 -14 6
-1 -51 -6 -125 -10 -293 -15 -837 -104 -1075 -176 -16 -4 -91 -25 -165 -45
-530 -146 -1122 -413 -1580 -714 -401 -263 -737 -578 -1011 -946 -96 -129
-154 -217 -267 -410 -57 -96 -242 -479 -287 -595 -99 -248 -185 -543 -240
-815 -56 -277 -67 -384 -72 -694 -5 -287 2 -446 33 -681 47 -355 195 -823 362
-1142 147 -282 378 -585 586 -769 303 -270 595 -455 1013 -642 392 -176 891
-258 1319 -216 108 10 289 40 351 58 32 9 33 9 68 -52 20 -34 40 -69 45 -77
20 -33 52 -106 57 -131 4 -20 -1 -31 -23 -48 -48 -38 -26 -36 126 11 36 11 85
23 110 28 40 7 192 56 245 79 11 5 52 22 90 37 39 16 72 31 75 34 3 3 28 14
55 25 28 10 52 21 55 24 3 3 25 17 50 30 65 36 177 107 240 154 63 47 233 214
306 302 58 68 164 226 164 242 0 6 4 13 8 15 5 2 34 55 66 118 45 90 56 122
52 145 -4 22 -3 26 4 15 8 -12 10 -10 10 10 0 26 34 191 52 248 26 87 41 456
23 567 -3 17 -8 63 -11 103 -4 39 -10 72 -14 72 -5 0 -12 24 -18 53 -9 47 -21
88 -43 142 -5 12 -6 1 -4 -30 l4 -50 -9 44 c-5 24 -14 49 -20 56 -6 7 -8 19
-4 28 6 17 -11 72 -48 154 -23 52 -38 67 -38 38 0 -8 5 -15 10 -15 6 0 10 -5
10 -11 0 -6 -10 -8 -22 -5 -13 3 -17 3 -10 0 17 -8 15 -17 -8 -32 -18 -11 -22
-10 -30 10 -8 22 -9 21 -10 -7 l-1 -30 -14 34 c-8 18 -15 49 -15 69 0 34 -1
35 -15 16 -11 -14 -14 -15 -15 -4 0 12 -2 13 -9 1 -7 -11 -11 -10 -20 7 -8 15
-8 23 1 28 7 4 8 3 4 -4 -4 -7 -5 -12 -2 -12 3 0 10 10 17 21 8 17 8 20 -1 14
-9 -5 -10 -1 -6 16 6 21 5 21 -9 -3 -20 -35 -28 -36 -15 -3 10 26 4 55 -11 55
-13 0 -11 -18 3 -22 7 -3 8 -9 2 -19 -7 -12 -14 -6 -32 29 -16 32 -18 41 -7
32 11 -9 19 -10 27 -2 16 16 3 39 -25 44 -20 4 -24 1 -20 -11 3 -9 -13 11 -35
44 -27 38 -40 67 -37 80 3 11 2 14 -1 7 -5 -10 -9 -10 -20 -1 -17 14 -19 33
-1 23 7 -4 9 -3 4 2 -5 5 -12 9 -15 9 -4 0 -45 39 -92 86 -151 153 -299 235
-530 294 -142 36 -258 48 -400 42 -277 -14 -528 -106 -739 -273 -217 -172
-335 -412 -334 -679 0 -60 6 -139 13 -175 25 -139 102 -278 194 -354 58 -47
165 -96 211 -96 51 0 43 -18 -12 -26 -87 -13 -264 37 -384 108 -203 122 -357
372 -389 633 -21 173 15 359 105 540 30 61 63 120 74 132 11 11 17 24 13 29
-4 4 -2 4 4 1 14 -8 47 31 38 45 -4 7 -3 8 4 4 7 -4 12 -2 12 4 0 6 4 9 8 6 5
-3 22 8 38 25 31 33 180 139 195 139 5 0 9 5 9 10 0 6 5 10 11 10 6 0 23 8 37
18 31 21 267 122 285 122 7 0 17 4 23 9 26 24 368 87 549 101 153 12 365 0
480 -26 154 -36 229 -56 292 -79 36 -13 72 -21 81 -18 11 5 13 3 7 -6 -6 -10
-2 -11 15 -6 14 4 20 3 16 -3 -9 -15 24 -24 40 -11 12 10 13 9 8 -5 -3 -9 -1
-16 5 -16 17 0 161 -71 241 -119 99 -59 227 -158 319 -246 40 -38 77 -69 82
-68 5 2 8 -1 6 -6 -1 -4 30 -48 69 -97 38 -49 84 -109 101 -134 79 -117 164
-328 197 -492 32 -158 37 -411 10 -583 -18 -122 -119 -443 -161 -515 -9 -16
-12 -17 -7 -5 16 48 64 238 82 330 37 185 46 269 46 455 0 210 -15 307 -70
482 -29 90 -113 271 -134 288 -3 3 -15 21 -27 42 -30 52 -74 99 -86 91 -6 -4
-7 -1 -2 6 8 14 -53 83 -66 75 -5 -3 -6 1 -4 8 3 8 -16 32 -42 55 -27 23 -66
58 -88 77 -22 20 -45 34 -52 32 -7 -3 -10 0 -8 7 6 15 -71 71 -85 62 -6 -4 -9
-1 -8 7 2 8 -6 12 -22 10 -17 -1 -21 1 -12 7 11 6 7 13 -15 29 -60 42 -209
124 -230 125 -12 1 -19 4 -17 6 2 2 -6 11 -17 19 -16 11 -23 12 -29 2 -6 -9
-14 -8 -36 5 l-29 16 30 -6 30 -5 -25 14 c-50 28 -336 118 -434 137 -216 41
-455 41 -661 0 -129 -26 -287 -79 -372 -126 -63 -34 -202 -122 -213 -135 -3
-3 -31 -27 -64 -54 -32 -27 -85 -84 -117 -125 -32 -42 -64 -82 -70 -89 -6 -7
-16 -23 -23 -35 -6 -12 -24 -41 -39 -64 -15 -24 -27 -45 -27 -48 0 -2 -13 -33
-29 -67 -50 -111 -72 -185 -80 -275 -8 -92 4 -251 20 -268 5 -5 9 -16 9 -25 0
-15 55 -127 70 -144 5 -5 6 11 3 35 -3 24 -9 46 -13 49 -4 3 -8 70 -9 150 -3
180 17 281 83 428 40 88 144 267 165 282 4 3 21 26 38 51 51 75 86 94 42 22
-30 -48 -18 -51 23 -5 19 21 56 55 81 74 44 33 50 48 21 48 -7 0 -25 -12 -39
-26 -14 -14 -28 -24 -31 -21 -12 11 62 73 116 97 14 6 32 18 42 26 9 9 22 17
30 19 36 8 58 18 58 25 0 4 8 10 18 13 9 3 51 20 92 37 190 80 271 95 525 94
269 -1 437 -33 613 -119 40 -19 75 -35 78 -35 18 0 226 -118 304 -173 113 -79
279 -251 356 -368 146 -222 232 -445 296 -769 20 -101 23 -145 23 -357 -1
-220 -4 -267 -20 -251 -3 3 -6 59 -7 124 -1 105 -2 112 -9 59 -20 -148 -57
-344 -80 -421 -5 -17 -9 -40 -9 -53 0 -12 -6 -34 -14 -49 -7 -15 -19 -54 -25
-87 -16 -78 -62 -215 -73 -215 -5 0 -6 -5 -2 -11 3 -6 3 -14 -2 -18 -13 -8
-116 -218 -129 -261 -8 -24 -17 -35 -29 -34 -11 1 -23 -11 -34 -35 -9 -20 -20
-37 -24 -39 -4 -2 -4 -10 -1 -18 3 -7 10 -11 16 -7 6 4 7 1 2 -6 -5 -9 -11 -9
-17 -3 -7 7 -16 5 -27 -6 -32 -32 -72 -103 -68 -120 3 -13 6 -12 15 8 6 14 22
39 37 55 17 19 23 23 16 9 -5 -11 -17 -26 -25 -34 -9 -7 -16 -18 -16 -24 -1
-6 -11 -24 -24 -39 -21 -26 -24 -27 -30 -11 -6 16 -8 16 -16 4 -13 -20 -12
-33 0 -25 6 3 10 2 10 -3 0 -20 -287 -313 -313 -320 -7 -2 6 12 28 32 22 19
35 35 29 36 -6 0 -17 -7 -24 -15 -10 -12 -16 -13 -29 -3 -14 11 -14 11 -3 -3
10 -13 9 -19 -3 -29 -8 -7 -12 -16 -9 -21 3 -5 -2 -12 -10 -15 -9 -3 -13 -11
-9 -17 4 -6 0 -8 -10 -4 -9 3 -21 -1 -29 -11 -12 -16 -11 -16 7 -2 20 14 20
14 1 -7 -10 -13 -22 -20 -27 -18 -4 3 -14 -3 -21 -13 -7 -9 -37 -36 -67 -60
-52 -41 -79 -54 -65 -30 4 7 3 8 -5 4 -6 -4 -9 -11 -6 -16 14 -23 -380 -241
-406 -224 -7 4 -9 3 -5 -4 4 -6 -15 -18 -46 -30 -29 -11 -66 -25 -81 -31 -22
-9 -27 -8 -22 2 4 6 -1 3 -10 -8 -11 -13 -28 -20 -55 -20 -30 0 -36 -2 -28
-12 14 -17 -5 -16 -57 2 -22 8 -47 14 -55 14 -8 0 8 -9 35 -18 l50 -18 -35 -8
c-19 -4 -39 -11 -45 -15 -11 -8 -137 -46 -290 -87 -11 -3 -32 -6 -47 -7 -14 0
-24 -4 -22 -8 2 -4 -17 -10 -43 -13 -27 -3 -58 -10 -71 -16 -20 -8 -107 -25
-237 -47 -22 -3 -61 -6 -87 -7 -27 0 -48 -3 -48 -7 0 -5 -19 -8 -42 -8 -35 1
-40 3 -25 11 10 6 27 9 37 6 11 -3 21 1 24 10 6 15 20 14 73 -3 15 -5 15 -4 3
5 -13 9 -13 11 0 15 8 3 29 11 45 18 17 6 50 18 75 25 41 11 42 12 9 9 -35 -4
-35 -4 -38 36 -2 43 -19 68 -45 68 -9 0 -16 8 -16 19 0 11 -6 21 -12 24 -18 6
-5 18 21 20 39 3 22 17 -21 17 -62 0 -42 8 37 14 39 3 71 10 73 16 5 13 42 13
42 0 0 -5 8 -10 18 -10 14 0 15 2 2 10 -13 8 -13 10 0 14 13 5 23 4 59 -3 2
-1 -2 -8 -10 -17 -11 -13 -9 -14 17 -8 16 3 33 11 39 15 5 5 33 9 63 9 32 0
51 4 47 10 -3 5 7 12 22 16 15 3 34 7 41 10 6 2 12 -2 13 -9 0 -9 2 -9 5 0 4
8 13 9 27 4 12 -5 31 -5 42 0 l20 8 -20 1 c-48 4 46 21 135 25 95 3 200 31
208 54 2 6 9 11 16 11 6 0 29 9 51 20 22 11 49 20 61 20 12 0 24 3 26 8 2 4
35 21 73 37 76 31 297 144 358 182 21 13 43 21 50 17 7 -4 9 -4 5 1 -7 7 58
64 73 65 4 0 21 14 39 30 18 17 36 30 41 30 10 0 109 102 109 113 0 11 -12 8
-41 -11 -63 -40 -185 -122 -196 -132 -7 -5 -15 -10 -19 -10 -4 0 -15 -6 -23
-14 -52 -46 -430 -214 -566 -252 -196 -54 -410 -101 -565 -123 -506 -75 -1085
-16 -1555 158 -776 286 -1196 592 -1655 1206 -175 233 -345 569 -467 920 -65
190 -123 428 -162 665 -39 239 -49 339 -57 595 -22 707 126 1423 428 2075 63
135 207 418 247 485 23 39 45 76 49 83 16 28 236 362 275 417 167 238 461 551
704 749 150 121 395 299 493 356 36 21 85 50 110 64 155 91 411 210 615 287
72 28 140 54 153 59 332 143 917 267 1407 300 143 10 457 5 656 -10z m-1704
-56 c-3 -3 -12 -4 -19 -1 -8 3 -5 6 6 6 11 1 17 -2 13 -5z m-127 -64 c-19 -13
-30 -13 -30 0 0 6 10 10 23 10 18 0 19 -2 7 -10z m-560 -74 c0 -9 -30 -14 -35
-6 -4 6 3 10 14 10 12 0 21 -2 21 -4z m-203 -72 c-3 -3 -12 -4 -19 -1 -8 3 -5
6 6 6 11 1 17 -2 13 -5z m-18 -18 c-2 -2 -15 -9 -29 -15 -24 -11 -24 -11 -6 3
16 13 49 24 35 12z m3192 -46 c327 -16 674 -58 889 -106 332 -75 593 -155 906
-277 327 -128 778 -377 1068 -590 61 -45 113 -84 116 -87 3 -3 28 -23 55 -44
92 -69 268 -232 440 -408 597 -606 1061 -1358 1328 -2148 90 -267 218 -777
257 -1030 5 -30 14 -82 20 -115 28 -160 39 -261 34 -295 -4 -23 -2 -40 5 -44
16 -10 13 -35 -6 -54 -15 -16 -16 -15 -9 11 4 16 2 27 -4 27 -12 0 -13 40 -2
58 5 7 6 26 4 43 -4 29 -5 29 -19 10 -12 -18 -11 -46 7 -212 51 -469 44 -1035
-20 -1489 -25 -178 -57 -341 -70 -354 -13 -13 -13 -10 4 104 47 307 70 719 63
1095 -8 395 -33 645 -102 1010 -88 463 -248 990 -402 1325 -19 41 -45 100 -58
131 -110 260 -422 802 -589 1025 -17 23 -38 52 -46 64 -60 89 -269 338 -400
474 -401 422 -828 735 -1330 974 -373 178 -918 346 -1315 406 -600 91 -1176
83 -1745 -25 -186 -35 -608 -140 -665 -166 l-30 -13 35 5 c282 39 410 45 1070
47 590 2 622 1 790 -20 96 -13 211 -30 255 -38 44 -8 106 -19 138 -24 358 -63
950 -269 1297 -452 309 -163 674 -405 914 -607 380 -319 635 -580 849 -870
143 -192 249 -353 341 -516 31 -55 61 -107 66 -115 48 -77 163 -301 243 -470
172 -368 361 -974 417 -1339 6 -35 12 -67 15 -70 10 -18 46 -284 68 -506 7
-80 12 -281 12 -520 -1 -395 -13 -588 -50 -820 -8 -49 -15 -104 -15 -122 0
-17 -6 -35 -12 -40 -7 -4 -170 -8 -362 -8 l-350 0 -13 -60 c-12 -61 -34 -157
-57 -255 -8 -30 -26 -95 -41 -145 -15 -49 -29 -99 -32 -110 -37 -151 -190
-548 -289 -749 -8 -16 -14 -35 -14 -42 0 -7 -3 -14 -7 -16 -5 -1 -21 -32 -38
-68 -16 -36 -49 -99 -72 -141 -24 -42 -43 -81 -43 -87 0 -7 -4 -12 -8 -12 -5
0 -24 -30 -43 -68 -18 -37 -43 -80 -54 -97 -12 -16 -30 -48 -41 -70 -10 -22
-23 -42 -27 -44 -5 -2 -13 -13 -18 -25 -5 -11 -19 -37 -32 -56 -12 -20 -37
-59 -55 -88 -19 -28 -40 -52 -48 -52 -8 0 -14 -9 -14 -19 0 -11 -6 -26 -12
-33 -16 -17 -78 -107 -78 -113 0 -2 -11 -16 -25 -31 -14 -15 -25 -31 -25 -35
0 -4 -15 -25 -34 -45 -19 -21 -33 -41 -31 -44 3 -4 -6 -12 -18 -19 -31 -17
-110 -128 -101 -142 4 -8 3 -9 -4 -5 -12 7 -30 -9 -89 -81 -17 -22 -68 -77
-112 -124 -45 -46 -79 -90 -76 -96 3 -8 -4 -12 -18 -10 -18 2 -22 -3 -23 -26
-1 -15 -8 -35 -18 -45 -19 -22 -21 -33 -5 -30 6 2 14 -3 16 -9 7 -20 -15 -15
-38 8 -20 20 -22 20 -40 3 -10 -9 -17 -20 -14 -23 4 -3 10 1 15 9 5 8 13 11
17 6 4 -4 -1 -14 -11 -22 -13 -9 -23 -11 -29 -5 -12 12 -147 -121 -147 -143 0
-9 -9 -16 -20 -16 -12 0 -32 -11 -46 -25 -14 -14 -28 -25 -32 -25 -4 0 -28
-19 -52 -43 -25 -23 -79 -68 -120 -99 -41 -30 -85 -65 -97 -77 -12 -11 -26
-21 -30 -21 -4 0 -28 -19 -53 -41 -39 -34 -144 -111 -198 -144 -10 -5 -21 -16
-25 -22 -4 -7 -13 -13 -20 -13 -7 0 -41 -22 -77 -50 -36 -27 -69 -49 -73 -50
-4 0 -16 -8 -27 -18 -11 -10 -48 -33 -82 -51 -123 -66 -238 -142 -232 -153 5
-7 2 -8 -5 -3 -14 8 -11 10 -172 -69 -63 -31 -120 -56 -127 -56 -7 0 -12 -4
-12 -8 0 -5 -18 -15 -40 -22 -22 -7 -40 -17 -40 -21 0 -4 -13 -10 -30 -14 -16
-4 -30 -10 -30 -14 0 -5 -36 -11 -80 -15 -108 -9 -350 -58 -550 -111 -30 -8
-84 -21 -120 -29 -36 -8 -114 -27 -173 -41 -63 -16 -119 -24 -135 -21 -18 5
-22 4 -13 -3 9 -6 -3 -11 -40 -16 -30 -3 -81 -13 -114 -21 -67 -15 -152 -26
-205 -25 -25 0 -30 -3 -20 -9 10 -6 1 -7 -25 -3 -22 3 -46 10 -52 16 -7 5 -13
6 -13 1 0 -10 -87 -11 -97 -1 -3 4 5 7 18 7 14 0 30 5 37 12 9 9 15 9 23 1 6
-6 20 -8 32 -5 21 6 21 6 -3 14 -16 5 -9 5 20 2 29 -3 40 -2 32 4 -19 13 22
23 61 15 20 -4 28 -2 24 4 -8 13 41 24 80 19 16 -2 22 -1 16 1 -24 8 -13 23
18 23 16 0 28 4 24 9 -6 10 10 16 70 27 22 4 52 13 67 20 24 12 27 12 31 -4 3
-14 6 -12 15 8 6 14 11 21 11 16 1 -4 12 -1 26 8 16 10 35 14 52 10 20 -4 24
-3 14 4 -10 8 -6 11 17 17 18 3 37 3 43 -1 8 -4 9 -3 5 4 -5 8 0 12 13 12 12
0 43 9 71 19 28 11 60 17 73 14 14 -3 18 -2 10 4 -9 6 11 17 60 32 145 47 344
123 482 187 28 12 97 44 155 69 301 134 627 316 885 493 551 379 1165 969
1520 1463 305 423 570 961 770 1564 134 402 195 716 247 1260 19 199 16 762
-6 975 -28 279 -99 683 -178 1009 -51 212 -157 547 -186 591 -9 14 -16 28 -14
32 5 19 -138 319 -149 312 -5 -3 -6 1 -4 8 6 16 -50 125 -57 112 -3 -5 -3 -3
-2 4 5 19 -7 43 -19 35 -6 -3 -7 -1 -3 5 9 15 -12 54 -24 47 -6 -4 -7 1 -3 11
5 13 3 15 -7 9 -9 -5 -11 -4 -6 3 7 12 -18 57 -44 80 -8 8 -9 11 -2 7 11 -6
11 -3 1 13 -7 12 -17 19 -21 16 -4 -3 -5 3 -1 12 4 11 3 15 -5 10 -6 -4 -12 3
-14 16 -2 13 -9 23 -17 23 -8 0 -16 7 -18 15 -4 13 -3 13 6 0 23 -32 9 3 -15
40 -25 37 -28 39 -41 23 -13 -16 -13 -16 -3 4 11 23 -9 57 -115 203 -91 126
-117 160 -122 160 -2 0 -2 -10 2 -22 5 -20 4 -21 -5 -5 -6 9 -8 22 -4 28 3 6
3 14 -2 18 -5 3 -34 35 -64 70 -73 86 -103 116 -113 113 -5 -1 -6 1 -3 6 3 5
-8 21 -23 36 -21 20 -30 24 -35 14 -3 -8 -5 -7 -3 4 1 9 -29 50 -68 92 -66 73
-94 93 -81 61 8 -22 -2 -18 -15 6 -8 17 -8 20 1 14 8 -5 11 -3 8 6 -3 8 -12
13 -21 11 -10 -2 -15 2 -12 10 2 7 -10 24 -28 38 -17 14 -28 18 -24 10 4 -8 2
-7 -5 3 -28 40 -39 50 -248 227 -29 25 -60 49 -69 54 -9 5 -18 12 -21 16 -8
10 -228 172 -298 219 -34 23 -67 39 -74 35 -7 -4 -8 -3 -4 4 8 14 -30 36 -46
26 -6 -4 -8 -3 -5 4 9 14 -208 143 -398 235 -212 103 -276 133 -380 177 -167
72 -275 111 -286 104 -5 -3 -9 -1 -9 5 0 6 -15 14 -32 20 -18 5 -80 23 -138
40 -147 43 -166 49 -242 66 -38 8 -96 22 -130 30 -115 26 -300 54 -503 75
-132 14 -675 14 -845 0 -172 -14 -406 -45 -535 -71 -224 -46 -537 -133 -640
-178 -22 -10 -68 -28 -103 -41 -45 -16 -60 -26 -50 -32 9 -6 6 -7 -9 -3 -23 6
-135 -43 -127 -56 2 -4 -1 -11 -7 -15 -8 -4 -9 -3 -5 4 8 14 5 15 -19 6 -13
-6 -14 -9 -3 -16 9 -7 7 -8 -7 -4 -24 7 -161 -74 -157 -93 1 -7 -2 -9 -8 -6
-6 4 -36 -10 -67 -30 -43 -29 -53 -39 -42 -47 12 -8 11 -9 -1 -5 -8 2 -23 0
-34 -5 -15 -8 -16 -12 -5 -20 10 -7 8 -8 -7 -4 -14 4 -34 -4 -62 -24 -45 -32
-52 -43 -24 -34 16 5 16 5 -1 -6 -9 -6 -21 -9 -25 -6 -4 2 -37 -22 -72 -54
-36 -33 -62 -59 -59 -60 3 0 25 18 50 40 45 41 74 55 42 21 -41 -43 -107 -92
-119 -87 -7 3 -18 -2 -25 -10 -10 -12 -9 -13 7 -8 15 5 16 4 4 -4 -8 -6 -18
-8 -22 -6 -12 7 -78 -52 -70 -62 4 -4 2 -4 -5 -1 -6 4 -20 -4 -31 -18 -11 -14
-24 -25 -29 -25 -5 0 -64 -56 -131 -124 -95 -95 -121 -127 -116 -142 4 -14 3
-15 -4 -5 -7 10 -17 4 -43 -29 -19 -24 -33 -47 -31 -52 1 -5 -2 -7 -7 -4 -21
13 -341 -406 -341 -447 0 -10 -4 -16 -8 -13 -4 3 -17 -12 -27 -32 -11 -20 -32
-57 -46 -82 -48 -80 -119 -213 -163 -305 -65 -134 -116 -246 -116 -253 0 -3
-9 -24 -19 -46 -31 -66 -70 -169 -77 -204 -4 -18 -11 -35 -15 -38 -12 -7 -11
37 2 161 6 55 12 120 13 145 2 25 7 79 10 120 7 86 0 76 -39 -50 -13 -41 -27
-74 -33 -73 -5 1 -7 -8 -5 -21 3 -13 -3 -47 -12 -77 -30 -99 -48 -175 -79
-334 -53 -268 -58 -680 -16 -1120 30 -315 123 -704 227 -950 35 -83 114 -245
134 -275 9 -14 40 -61 69 -105 122 -185 283 -363 477 -527 362 -305 810 -501
1348 -589 105 -18 180 -22 395 -24 146 -1 274 1 285 5 11 4 45 10 75 14 110
12 -87 -32 -220 -50 -622 -81 -1325 138 -1865 582 -302 247 -531 542 -715 920
-251 516 -353 1016 -336 1648 3 133 10 268 16 301 5 33 13 85 16 115 18 176
119 572 193 760 65 165 72 180 84 173 6 -3 7 -1 3 6 -4 6 23 74 62 154 191
388 506 855 741 1098 265 274 309 315 497 465 472 378 1031 675 1599 852 447
140 876 213 1345 231 107 4 202 9 211 9 9 1 108 -3 220 -8z m-3921 -310 c-6
-10 -16 -23 -23 -27 -8 -4 -24 -22 -37 -40 -12 -17 -31 -34 -41 -36 -25 -7
-24 -3 9 35 64 76 117 115 92 68z m7010 -671 c222 -150 533 -425 710 -629 36
-41 70 -80 77 -87 52 -57 228 -288 227 -299 -1 -8 2 -12 6 -9 8 5 67 -71 162
-210 115 -168 300 -510 405 -750 89 -201 217 -557 225 -622 1 -15 5 -30 8 -33
6 -6 41 -141 39 -155 0 -5 -4 1 -9 15 -237 709 -526 1272 -914 1780 -195 256
-281 356 -501 578 -202 206 -333 325 -480 436 -140 106 -130 103 45 -15z
m-5960 -294 c-14 -8 -29 -14 -35 -14 -5 0 1 6 15 14 14 8 30 14 35 14 6 0 -1
-6 -15 -14z m-290 -196 c-7 -11 -14 -18 -17 -15 -3 3 0 12 7 21 18 21 23 19
10 -6z m4924 -164 c3 -8 1 -15 -3 -15 -5 0 -11 7 -15 15 -3 8 -1 15 3 15 5 0
11 -7 15 -15z m-2209 -86 c327 -30 675 -113 975 -230 291 -113 759 -394 962
-577 22 -20 42 -31 49 -26 7 4 9 3 6 -2 -3 -6 51 -64 121 -129 170 -161 443
-462 512 -565 8 -13 24 -35 36 -49 11 -14 40 -55 63 -91 24 -36 48 -64 53 -62
5 1 7 -2 3 -8 -4 -6 17 -47 45 -90 283 -442 578 -1255 644 -1775 46 -360 49
-933 6 -1170 -5 -27 -14 -84 -21 -125 -6 -41 -15 -82 -20 -90 -5 -8 -8 139 -7
340 3 612 -39 960 -167 1417 -60 212 -216 638 -230 626 -4 -5 -5 -3 -2 3 8 13
-9 56 -57 154 -18 36 -38 82 -45 103 -7 20 -17 34 -22 31 -6 -3 -9 0 -8 7 3
14 -20 63 -83 179 -98 180 -140 244 -153 232 -5 -4 -5 -1 -1 6 5 8 -19 53 -65
120 -76 112 -261 359 -301 402 -13 14 -50 57 -83 95 -97 114 -372 384 -476
468 -407 326 -1089 578 -1724 637 -142 13 -498 13 -623 0 -612 -64 -1208 -304
-1667 -669 -120 -96 -137 -111 -274 -250 -220 -222 -412 -494 -541 -763 -134
-282 -197 -558 -207 -909 -9 -302 19 -505 101 -754 107 -321 254 -540 491
-735 292 -240 656 -368 910 -322 l50 9 -51 2 c-80 2 -219 28 -329 62 -542 168
-916 636 -1001 1254 -22 166 -15 491 15 658 57 322 181 624 375 915 114 172
199 274 343 416 147 144 243 222 408 331 381 254 761 383 1305 446 158 18 221
20 425 16 349 -8 547 -41 945 -156 58 -17 121 -37 140 -45 19 -8 62 -24 95
-37 33 -12 78 -30 100 -40 22 -9 69 -29 105 -44 59 -25 184 -88 285 -145 100
-56 356 -230 459 -311 297 -235 561 -519 725 -779 119 -189 246 -503 212 -524
-5 -4 -8 -14 -5 -24 3 -9 -3 -2 -14 17 -11 19 -17 44 -15 55 4 15 2 17 -5 8
-7 -11 -10 -10 -16 3 -3 9 -3 22 1 27 3 7 1 8 -5 4 -7 -4 -21 12 -36 42 -25
49 -115 195 -151 245 -11 15 -44 59 -73 97 -31 40 -50 75 -46 81 4 7 3 9 -4 5
-6 -3 -32 20 -59 51 -26 32 -57 67 -68 79 -234 251 -527 511 -755 671 -515
361 -1045 550 -1689 604 -160 13 -544 7 -701 -11 -282 -33 -557 -120 -836
-265 -274 -142 -451 -270 -655 -474 -365 -367 -564 -742 -665 -1259 -32 -158
-43 -459 -25 -622 62 -538 331 -943 776 -1168 189 -96 322 -127 550 -127 137
0 171 3 238 23 43 12 84 19 90 16 7 -4 9 -4 5 1 -4 4 15 19 44 32 138 64 281
191 332 295 84 171 66 379 -46 534 -39 55 -105 100 -178 121 -46 13 -66 14
-129 4 -125 -19 -218 -85 -241 -172 -9 -32 -14 -39 -23 -30 -8 8 -12 53 -12
129 0 92 4 125 18 153 21 42 83 109 138 148 21 16 36 31 33 34 -3 3 3 4 13 3
10 0 17 4 16 10 -1 7 5 11 15 10 12 -1 16 5 14 19 -2 14 0 16 6 7 6 -9 20 -8
62 6 35 12 49 21 40 25 -8 3 -2 3 14 0 16 -3 27 -2 23 3 -3 5 7 10 21 10 15 1
81 5 147 9 95 5 130 4 169 -9 27 -8 54 -12 59 -9 6 3 7 1 4 -4 -4 -6 4 -14 16
-17 43 -10 171 -102 223 -158 221 -243 273 -539 149 -858 -43 -113 -102 -237
-116 -246 -14 -8 -4 26 23 79 10 21 16 42 13 47 -3 6 -2 10 4 10 13 0 54 127
47 146 -4 9 -2 12 5 8 8 -5 10 6 7 35 -2 22 0 42 5 44 5 1 6 45 2 100 -4 53
-11 95 -15 92 -4 -3 -8 10 -7 29 1 42 -71 228 -86 219 -6 -3 -7 -1 -3 5 8 13
-6 44 -20 44 -5 -1 -8 6 -6 15 2 10 -1 12 -9 7 -8 -4 -10 -3 -5 4 12 20 -116
155 -139 145 -11 -4 -13 -1 -8 13 5 14 3 16 -11 11 -10 -4 -15 -3 -11 3 3 6
-1 10 -9 10 -9 0 -16 5 -16 10 0 6 -15 10 -34 10 -19 0 -38 5 -42 11 -4 8 1 9
17 4 19 -5 21 -4 9 4 -8 6 -24 11 -36 11 -11 0 -24 4 -30 9 -15 15 -58 25 -50
12 5 -8 -24 -11 -101 -9 -87 1 -98 3 -58 8 44 7 42 7 -15 4 -36 -3 -76 -6 -90
-8 -14 -1 -35 -4 -48 -4 -13 -1 -21 -6 -18 -11 4 -5 -4 -7 -16 -4 -19 4 -20 3
-8 -6 13 -9 12 -11 -5 -9 -37 3 -56 -2 -50 -12 3 -5 0 -7 -7 -5 -16 6 -128
-70 -128 -87 0 -7 5 -7 14 1 8 7 47 23 87 36 129 43 289 31 403 -30 61 -32
136 -84 136 -93 0 -4 18 -25 40 -47 21 -22 39 -44 40 -49 0 -5 11 -32 24 -60
69 -147 70 -410 1 -612 -31 -93 -136 -321 -153 -334 -4 -3 -20 -25 -37 -50
-47 -71 -68 -95 -147 -163 -59 -52 -264 -187 -283 -187 -3 0 -29 -12 -58 -27
-50 -25 -58 -26 -217 -26 -185 0 -292 13 -425 49 -84 24 -231 79 -247 93 -4 3
77 6 180 6 142 0 206 4 267 18 272 60 470 165 659 348 54 53 101 97 103 97 10
2 43 51 43 65 0 9 7 23 16 31 8 9 12 16 9 16 -4 0 -37 -28 -73 -61 -212 -195
-444 -295 -712 -306 -401 -16 -776 153 -1102 496 -242 254 -407 600 -474 996
-22 124 -25 495 -6 630 55 392 172 732 368 1062 65 110 87 156 119 248 15 44
39 104 53 134 22 47 26 51 35 35 23 -40 30 -41 60 -7 16 18 25 37 21 44 -4 7
-3 9 3 6 5 -4 37 22 70 56 129 134 314 291 505 429 40 29 75 55 78 58 3 3 68
44 145 90 337 202 641 320 1020 399 213 44 639 58 930 30z m-768 5 c-3 -3 -12
-4 -19 -1 -8 3 -5 6 6 6 11 1 17 -2 13 -5z m-2357 -97 c0 -2 -10 -12 -22 -23
l-23 -19 19 23 c18 21 26 27 26 19z m6220 -557 c0 -5 -2 -10 -4 -10 -3 0 -8 5
-11 10 -3 6 -1 10 4 10 6 0 11 -4 11 -10z m160 -174 c0 -6 -5 -4 -10 4 -8 13
-11 12 -25 -5 -16 -19 -16 -19 -5 3 6 12 8 28 4 35 -4 6 2 3 14 -7 12 -11 22
-24 22 -30z m53 -73 c-3 -7 -6 -13 -8 -13 -2 0 -5 6 -8 13 -3 8 1 14 8 14 7 0
11 -6 8 -14z m-3513 -18 c97 -9 308 -47 434 -79 485 -125 954 -364 1331 -677
275 -229 543 -550 738 -884 99 -170 218 -451 276 -651 18 -60 36 -120 42 -134
5 -14 16 -56 25 -95 58 -261 67 -317 108 -680 19 -162 26 -500 15 -660 -5 -66
-11 -172 -15 -235 -4 -63 -10 -119 -14 -125 -5 -5 -11 -37 -15 -70 -7 -65 -35
-201 -74 -362 -29 -119 -43 -170 -52 -185 -5 -10 -9 -26 -9 -35 0 -10 -7 -31
-15 -47 -8 -15 -15 -33 -15 -38 0 -12 -47 -137 -60 -158 -5 -8 -21 -40 -35
-70 -80 -163 -138 -270 -147 -270 -4 0 -8 -9 -8 -20 0 -11 -3 -20 -8 -20 -4 0
-18 -21 -32 -47 -13 -27 -37 -64 -52 -84 -15 -20 -28 -40 -28 -44 0 -4 -22
-38 -50 -75 -27 -37 -50 -71 -50 -75 0 -5 -10 -22 -23 -39 -13 -17 -26 -39
-30 -48 -3 -10 -10 -18 -15 -18 -5 0 -27 -25 -47 -55 -21 -30 -41 -55 -45 -55
-3 0 -14 -15 -25 -33 -10 -17 -29 -45 -42 -60 -13 -16 -21 -33 -18 -38 4 -5 0
-7 -7 -4 -7 3 -20 -6 -28 -19 -22 -36 -89 -115 -137 -162 -24 -23 -43 -45 -43
-48 0 -11 -244 -244 -320 -305 -25 -20 -47 -38 -50 -41 -3 -3 -41 -32 -85 -65
-44 -32 -86 -65 -93 -72 -7 -7 -20 -13 -27 -13 -9 0 -12 -6 -8 -17 4 -11 3
-14 -5 -9 -7 4 -33 -7 -60 -25 -120 -82 -173 -117 -265 -171 -54 -32 -103 -58
-108 -58 -5 0 -9 -4 -9 -10 0 -5 -6 -10 -12 -10 -7 0 -26 -7 -43 -16 -211
-110 -428 -214 -449 -214 -7 0 -59 -16 -117 -36 -57 -20 -135 -44 -174 -54
-38 -10 -101 -26 -140 -37 -71 -21 -178 -43 -295 -63 -36 -6 -74 -13 -85 -16
l-20 -4 20 9 c11 5 67 26 125 46 259 91 661 287 910 444 118 74 238 156 290
200 19 17 112 92 205 167 214 173 559 516 708 704 307 388 474 696 620 1145
137 424 197 786 197 1201 0 669 -159 1257 -486 1799 -144 240 -451 575 -732
800 -388 312 -799 492 -1307 572 -153 24 -496 24 -655 -1 -658 -100 -1196
-469 -1497 -1026 -132 -243 -204 -573 -190 -875 10 -226 91 -446 245 -665 53
-76 198 -222 244 -246 23 -12 27 -18 18 -24 -34 -21 -244 122 -376 255 -175
176 -279 384 -336 670 -19 92 -23 144 -23 320 0 248 14 339 82 545 128 389
366 745 664 991 319 264 645 426 1074 533 190 48 528 91 630 80 17 -2 64 -6
105 -9z m-2577 -60 c-3 -9 -8 -14 -10 -11 -3 3 -2 9 2 15 9 16 15 13 8 -4z
m-25 -80 c-3 -3 -9 2 -12 12 -6 14 -5 15 5 6 7 -7 10 -15 7 -18z m42 5 c0 -5
-5 -10 -11 -10 -5 0 -7 5 -4 10 3 6 8 10 11 10 2 0 4 -4 4 -10z m-12 -50 c-7
-11 -16 -20 -20 -20 -5 0 -3 9 4 20 7 11 16 20 20 20 5 0 3 -9 -4 -20z m6266
-26 c3 -8 2 -12 -4 -9 -6 3 -10 10 -10 16 0 14 7 11 14 -7z m-1273 -921 c13
-16 12 -17 -3 -4 -17 13 -22 21 -14 21 2 0 10 -8 17 -17z m114 -123 c48 -55
84 -104 80 -110 -10 -16 -35 7 -35 31 0 11 -3 18 -7 18 -19 -3 -33 2 -30 10 1
5 -22 39 -50 75 -51 64 -59 76 -49 76 3 0 44 -45 91 -100z m3082 48 c-3 -8 -6
-5 -6 6 -1 11 2 17 5 13 3 -3 4 -12 1 -19z m-4876 -51 c-10 -9 -11 -8 -5 6 3
10 9 15 12 12 3 -3 0 -11 -7 -18z m-76 -75 c-3 -3 -11 0 -18 7 -9 10 -8 11 6
5 10 -3 15 -9 12 -12z m827 -47 c11 -21 8 -18 -32 30 -24 29 -24 29 -2 10 13
-11 28 -29 34 -40z m1193 -55 c34 -41 54 -74 49 -81 -4 -7 -3 -9 4 -5 6 4 35
-26 69 -71 33 -43 95 -125 139 -183 114 -148 157 -216 148 -232 -4 -7 -4 -10
1 -6 9 8 35 -41 79 -147 16 -38 34 -77 41 -85 69 -90 226 -595 270 -872 9 -57
20 -125 26 -153 34 -185 64 -755 54 -1045 -17 -567 -66 -835 -229 -1278 -7
-18 -16 -29 -20 -25 -4 4 -4 0 -1 -8 6 -17 -85 -218 -159 -347 -25 -45 -58
-104 -73 -130 -96 -172 -351 -505 -525 -683 -508 -522 -1068 -883 -1750 -1129
-59 -21 -116 -36 -127 -33 -20 5 -20 6 3 24 13 11 29 19 34 19 5 0 12 6 15 14
3 8 15 12 30 9 14 -3 41 3 61 12 24 12 49 16 71 12 24 -4 33 -2 29 5 -4 6 -3
8 3 5 5 -3 21 0 34 7 14 7 38 16 53 20 15 4 24 10 21 15 -2 5 2 12 11 15 9 4
14 9 11 12 -3 3 -16 0 -29 -7 -21 -11 -22 -11 -9 4 8 10 25 16 44 14 19 -1 31
3 34 13 3 10 2 11 -4 3 -6 -8 -14 -9 -23 -3 -17 11 -20 10 50 14 20 2 45 8 55
14 19 11 19 11 1 12 -30 0 -10 13 26 15 17 2 37 9 42 17 6 7 22 19 36 26 59
30 85 45 90 51 3 4 52 38 110 76 104 68 202 141 271 200 19 16 62 53 94 80
831 700 1371 1548 1544 2425 38 192 65 438 47 419 -4 -4 -25 -138 -29 -181 -1
-10 -5 -18 -10 -18 -5 0 -7 -17 -4 -37 3 -21 -1 -56 -9 -78 -11 -31 -13 -33
-9 -10 2 17 7 41 11 55 4 20 3 22 -5 10 -6 -8 -11 -23 -11 -32 0 -10 -4 -18
-10 -18 -14 0 -12 17 4 43 7 12 17 49 20 82 4 32 11 62 16 65 16 10 34 299 22
360 -10 49 -10 42 -6 -57 5 -99 4 -113 -10 -113 -12 0 -16 10 -16 40 0 22 -4
40 -9 40 -25 0 -35 352 -11 409 l14 34 10 -24 c10 -24 10 -24 13 6 3 26 -5 71
-42 250 -4 17 -11 40 -17 52 l-11 22 -18 -24 c-11 -13 -19 -30 -19 -38 0 -21
-17 -31 -23 -15 -8 21 -11 -25 -11 -216 -1 -151 -3 -179 -16 -182 -8 -1 -23
-5 -32 -9 -14 -6 -17 -1 -15 34 1 23 4 41 8 41 4 0 6 12 4 28 -1 15 1 29 5 32
4 3 11 50 14 105 3 55 9 161 13 235 10 164 10 445 2 520 -17 138 -63 415 -71
418 -4 2 -8 11 -8 19 0 82 -111 401 -212 613 -67 137 -240 429 -260 438 -5 2
-8 9 -8 16 0 7 -9 21 -21 32 -33 30 -61 73 -54 84 3 5 8 10 10 10 2 0 29 -31
60 -70z m-1704 -37 c13 -16 12 -17 -3 -4 -10 7 -18 15 -18 17 0 8 8 3 21 -13z
m622 -38 c-3 -9 -8 -14 -10 -11 -3 3 -2 9 2 15 9 16 15 13 8 -4z m-1423 -15
c8 -5 11 -10 5 -10 -5 0 -17 5 -25 10 -8 5 -10 10 -5 10 6 0 17 -5 25 -10z
m1464 -42 c-7 -11 16 -39 26 -33 4 3 13 -2 19 -9 9 -11 9 -16 0 -22 -7 -4 -9
-3 -5 4 3 6 2 13 -4 17 -5 3 -10 1 -10 -6 0 -7 -11 2 -25 21 -29 40 -29 37
-10 37 8 0 12 -4 9 -9z m-469 -68 c3 -5 1 -10 -4 -10 -6 0 -11 5 -11 10 0 6 2
10 4 10 3 0 8 -4 11 -10z m1860 -61 c2 -22 0 -27 -6 -18 -10 16 -12 66 -3 56
4 -4 8 -21 9 -38z m-1855 -3 c0 -8 9 -18 20 -21 11 -3 20 -11 20 -16 0 -15
-12 -11 -37 13 -24 23 -30 38 -13 38 6 0 10 -6 10 -14z m-530 -96 c0 -5 -2
-10 -4 -10 -3 0 -8 5 -11 10 -3 6 -1 10 4 10 6 0 11 -4 11 -10z m610 -10 c0
-5 -5 -10 -11 -10 -5 0 -7 5 -4 10 3 6 8 10 11 10 2 0 4 -4 4 -10z m-625 -18
c-3 -3 -11 0 -18 7 -9 10 -8 11 6 5 10 -3 15 -9 12 -12z m95 -36 c0 -3 -4 -8
-10 -11 -5 -3 -10 -1 -10 4 0 6 5 11 10 11 6 0 10 -2 10 -4z m44 -42 c3 -8 2
-12 -4 -9 -6 3 -10 10 -10 16 0 14 7 11 14 -7z m3693 -26 c-3 -8 -6 -5 -6 6
-1 11 2 17 5 13 3 -3 4 -12 1 -19z m-3113 -53 c3 -8 1 -15 -3 -15 -5 0 -11 7
-15 15 -3 8 -1 15 3 15 5 0 11 -7 15 -15z m32 -83 c2 -39 1 -43 -7 -23 -5 14
-8 30 -5 38 3 7 1 15 -5 18 -5 4 -7 11 -3 16 10 18 18 0 20 -49z m21 -24 c-3
-7 -5 -2 -5 12 0 14 2 19 5 13 2 -7 2 -19 0 -25z m3 -48 c0 -5 -2 -10 -4 -10
-3 0 -8 5 -11 10 -3 6 -1 10 4 10 6 0 11 -4 11 -10z m90 -110 c0 -5 -5 -10
-11 -10 -5 0 -7 5 -4 10 3 6 8 10 11 10 2 0 4 -4 4 -10z m-940 -35 c0 -8 -4
-15 -10 -15 -5 0 -10 7 -10 15 0 8 5 15 10 15 6 0 10 -7 10 -15z m5177 -187
c-3 -8 -6 -5 -6 6 -1 11 2 17 5 13 3 -3 4 -12 1 -19z m-5107 -8 c0 -11 -4 -20
-9 -20 -5 0 -7 9 -4 20 3 11 7 20 9 20 2 0 4 -9 4 -20z m5147 -12 c-3 -8 -6
-5 -6 6 -1 11 2 17 5 13 3 -3 4 -12 1 -19z m-6244 -42 c18 -31 18 -31 -18 6
-38 40 -45 54 -17 37 10 -6 26 -25 35 -43z m1974 22 c-3 -8 -6 -5 -6 6 -1 11
2 17 5 13 3 -3 4 -12 1 -19z m-737 -13 c0 -8 -4 -15 -10 -15 -14 0 -13 -16 3
-32 29 -31 37 -46 31 -62 -8 -21 -24 -11 -24 15 0 12 -10 29 -22 39 -20 15
-21 21 -10 44 13 28 32 35 32 11z m-1186 -63 c12 -23 12 -29 1 -29 -7 0 -11 6
-8 13 2 6 0 15 -6 19 -6 3 -11 10 -11 16 0 17 9 9 24 -19z m1973 -14 c-3 -8
-6 -5 -6 6 -1 11 2 17 5 13 3 -3 4 -12 1 -19z m-870 -20 c-3 -8 -6 -5 -6 6 -1
11 2 17 5 13 3 -3 4 -12 1 -19z m5090 -30 c-3 -7 -5 -2 -5 12 0 14 2 19 5 13
2 -7 2 -19 0 -25z m20 -50 c-2 -13 -4 -5 -4 17 -1 22 1 32 4 23 2 -10 2 -28 0
-40z m-5012 -6 c-6 -15 -8 -15 -15 3 -4 12 -3 26 4 34 9 12 12 11 14 -3 2 -9
1 -25 -3 -34z m3844 -156 c2 -101 -6 -57 -12 64 -3 79 -3 96 3 55 4 -33 8 -87
9 -119z m1178 102 c-3 -8 -6 -5 -6 6 -1 11 2 17 5 13 3 -3 4 -12 1 -19z
m-5100 -80 c-3 -8 -6 -5 -6 6 -1 11 2 17 5 13 3 -3 4 -12 1 -19z m860 -70 c-3
-8 -6 -5 -6 6 -1 11 2 17 5 13 3 -3 4 -12 1 -19z m3070 -240 c-1 -40 -3 -8 -3
72 0 80 2 112 3 73 2 -40 2 -106 0 -145z m-3920 150 c-3 -8 -6 -5 -6 6 -1 11
2 17 5 13 3 -3 4 -12 1 -19z m840 -50 c-3 -8 -6 -5 -6 6 -1 11 2 17 5 13 3 -3
4 -12 1 -19z m4270 -30 c-3 -7 -5 -2 -5 12 0 14 2 19 5 13 2 -7 2 -19 0 -25z
m-5107 -578 c-7 -58 -16 -109 -20 -115 -4 -5 -10 -27 -14 -48 -23 -128 -157
-419 -231 -504 -5 -6 -21 -26 -35 -45 -33 -45 -186 -197 -232 -231 -20 -14
-42 -33 -50 -40 -17 -18 -58 -40 -58 -32 0 4 33 41 74 83 125 131 186 207 283
354 57 85 154 279 184 366 35 101 68 260 79 375 5 61 13 135 17 162 14 88 16
-208 3 -325z m-2484 244 c18 -14 18 -15 -6 -8 -14 3 -32 10 -40 15 -12 7 -11
8 6 9 11 0 29 -7 40 -16z m3375 -51 c-12 -20 -14 -14 -5 12 4 9 9 14 11 11 3
-2 0 -13 -6 -23z m-864 -15 c-3 -8 -6 -5 -6 6 -1 11 2 17 5 13 3 -3 4 -12 1
-19z m2250 -40 c-2 -13 -4 -5 -4 17 -1 22 1 32 4 23 2 -10 2 -28 0 -40z m314
-210 c-4 -35 -6 -38 -9 -15 -3 26 3 57 10 57 2 0 1 -19 -1 -42z m66 -40 c-3
-8 -6 -5 -6 6 -1 11 2 17 5 13 3 -3 4 -12 1 -19z m-71 -30 c-3 -13 -6 -29 -6
-35 0 -7 -4 -13 -10 -13 -7 0 -8 41 -1 68 1 1 6 2 12 2 7 0 9 -9 5 -22z
m-8419 -70 c-3 -8 -6 -5 -6 6 -1 11 2 17 5 13 3 -3 4 -12 1 -19z m32 -128 c0
-9 -4 -8 -9 5 -5 11 -9 27 -9 35 0 9 4 8 9 -5 5 -11 9 -27 9 -35z m8301 -30
c0 -5 -5 -10 -11 -10 -5 0 -7 5 -4 10 3 6 8 10 11 10 2 0 4 -4 4 -10z m107
-142 c-3 -8 -6 -5 -6 6 -1 11 2 17 5 13 3 -3 4 -12 1 -19z m-8261 -97 c18 15
18 9 -2 -30 -13 -26 -14 -38 -5 -57 16 -36 14 -40 -9 -14 -11 12 -17 26 -15
31 3 4 6 25 7 46 1 21 3 32 6 25 3 -10 7 -10 18 -1z m16 -68 c-3 -16 -7 -22
-10 -15 -4 13 4 42 11 42 2 0 2 -12 -1 -27z m48 -47 c0 -12 -5 -7 -19 24 -11
24 -11 24 3 6 9 -11 16 -24 16 -30z m28 27 c-1 -10 1 -23 5 -30 4 -6 3 -14 -3
-18 -5 -3 -11 -3 -11 2 -7 48 -6 63 2 63 6 0 9 -8 7 -17z m8002 13 c0 -3 -4
-8 -10 -11 -5 -3 -10 -1 -10 4 0 6 5 11 10 11 6 0 10 -2 10 -4z m-8000 -128
c0 -36 -4 -35 -14 5 -4 16 -2 27 4 27 5 0 10 -14 10 -32z m7967 0 c-3 -8 -6
-5 -6 6 -1 11 2 17 5 13 3 -3 4 -12 1 -19z m-7905 -60 c-7 -7 -12 -8 -12 -2 0
14 12 26 19 19 2 -3 -1 -11 -7 -17z m5506 -13 c-3 -3 -9 2 -12 12 -6 14 -5 15
5 6 7 -7 10 -15 7 -18z m-5535 -15 c8 0 7 -4 -1 -12 -17 -17 -35 3 -25 28 7
17 8 17 11 2 2 -10 9 -18 15 -18z m5511 -20 c-6 -6 -10 -3 -10 10 0 13 4 16
10 10 7 -7 7 -13 0 -20z m-5447 -42 c-7 -4 -13 -1 -15 8 -3 12 -7 13 -18 3
-13 -11 -14 -8 -10 17 2 16 5 30 5 32 1 2 12 -9 25 -25 17 -19 21 -30 13 -35z
m44 -38 c6 0 7 -5 4 -10 -5 -8 -12 -7 -23 2 -15 12 -16 11 -4 -4 22 -28 9 -41
-17 -17 -18 17 -20 23 -9 30 7 5 19 7 26 4 8 -3 18 -5 23 -5z m8069 -160 c0
-5 -2 -10 -4 -10 -3 0 -8 5 -11 10 -3 6 -1 10 4 10 6 0 11 -4 11 -10z m-19
-47 c-8 -15 -10 -15 -11 -2 0 17 10 32 18 25 2 -3 -1 -13 -7 -23z m-44 -165
c-3 -8 -6 -5 -6 6 -1 11 2 17 5 13 3 -3 4 -12 1 -19z m-35 -110 c-6 -6 -12 -6
-17 3 -6 8 -4 10 5 4 9 -5 10 -1 6 16 -6 21 -6 22 5 6 7 -13 8 -22 1 -29z
m-7016 -85 c-7 -7 -26 7 -26 19 0 6 6 6 15 -2 9 -7 13 -15 11 -17z m6941 -57
c-3 -7 -1 -18 4 -23 6 -6 2 -26 -10 -54 -23 -52 -28 -45 -6 8 11 25 12 39 5
43 -10 6 -4 40 7 40 3 0 3 -6 0 -14z m-63 -181 c5 -22 4 -26 -4 -15 -5 8 -10
24 -10 34 0 26 6 18 14 -19z m-30 -40 c-4 -8 -1 -15 5 -15 6 0 11 5 11 12 0 6
3 9 6 6 3 -4 0 -17 -7 -29 l-12 -23 -9 23 c-4 12 -6 27 -2 32 9 14 14 10 8 -6z
m-364 -75 c0 -5 -5 -10 -11 -10 -5 0 -7 5 -4 10 3 6 8 10 11 10 2 0 4 -4 4
-10z m335 -20 c-4 -12 -9 -19 -12 -17 -3 3 -2 15 2 27 4 12 9 19 12 17 3 -3 2
-15 -2 -27z m-24 -67 c-8 -15 -10 -15 -11 -2 0 17 10 32 18 25 2 -3 -1 -13 -7
-23z m-8990 3 c5 3 9 -1 9 -9 0 -8 15 -30 33 -48 18 -19 52 -59 74 -90 23 -31
50 -64 60 -74 10 -10 27 -31 39 -46 76 -103 472 -508 580 -593 27 -22 67 -57
90 -78 22 -22 45 -38 50 -36 5 2 11 -1 14 -7 14 -29 192 -168 204 -160 3 3 4
2 1 -2 -7 -10 117 -98 134 -95 9 1 23 -3 31 -8 13 -9 13 -11 0 -21 -12 -9 -11
-10 7 -6 13 3 20 1 17 -7 -2 -6 58 -52 133 -102 133 -88 386 -244 396 -244 3
0 36 -17 74 -39 37 -21 79 -42 93 -46 14 -4 27 -11 30 -15 5 -8 245 -130 255
-130 3 0 46 -18 95 -41 167 -75 331 -128 457 -149 28 -4 66 -13 85 -18 18 -6
60 -18 93 -27 33 -9 71 -20 85 -25 22 -8 104 -30 225 -62 22 -6 67 -20 100
-31 33 -11 76 -23 95 -27 19 -4 76 -17 125 -28 50 -11 104 -23 120 -25 181
-29 229 -42 219 -59 -4 -6 3 -5 14 1 11 6 31 11 44 11 22 -1 22 -1 4 -15 -19
-14 -19 -15 8 -15 15 0 25 -4 22 -9 -3 -5 2 -12 11 -15 9 -4 20 -1 24 6 6 9
13 9 34 0 15 -7 36 -10 47 -6 10 3 24 2 31 -3 36 -28 107 -34 385 -34 158 0
301 2 317 5 17 3 80 10 140 15 115 10 312 46 330 61 5 4 29 11 53 15 24 4 46
13 49 21 2 7 21 18 41 24 44 14 125 50 132 59 9 12 50 31 65 31 8 0 23 4 33 9
9 5 42 16 72 25 30 9 61 22 70 30 8 7 34 18 58 26 23 7 42 17 42 22 0 4 8 8
18 8 9 0 28 6 42 13 14 7 52 23 85 36 92 36 128 51 158 67 15 8 31 13 36 9 5
-3 12 -1 15 4 3 5 15 7 26 4 11 -3 20 0 20 6 0 6 9 11 19 11 10 0 21 7 25 15
3 9 18 15 36 15 17 0 29 4 26 9 -4 5 15 17 41 26 27 9 55 21 63 26 8 5 23 12
33 15 9 4 17 10 17 15 0 5 9 9 19 9 11 0 22 4 26 9 3 5 19 12 35 16 17 4 30
10 30 15 0 4 11 11 25 14 14 4 25 11 25 17 0 6 4 8 9 4 6 -3 25 4 43 15 18 11
39 20 47 20 8 0 20 8 28 18 10 13 13 13 11 2 -2 -8 -21 -27 -43 -42 -22 -15
-40 -33 -40 -40 0 -6 -18 -20 -40 -30 -22 -10 -33 -16 -24 -14 12 3 15 -1 12
-14 -3 -10 -15 -20 -27 -22 -13 -2 -21 -10 -21 -23 0 -14 -8 -21 -27 -23 -16
-2 -28 1 -28 6 0 18 -32 23 -44 7 -10 -14 -39 -24 -103 -38 -7 -2 -20 -11 -31
-20 -10 -9 -24 -17 -30 -17 -7 0 -12 -7 -12 -15 0 -8 -3 -15 -8 -15 -4 0 -20
-12 -35 -26 -22 -20 -36 -25 -62 -22 -41 5 -55 -15 -55 -75 l0 -44 -56 -12
c-32 -7 -75 -10 -100 -6 -55 8 -84 -1 -84 -26 0 -17 8 -19 90 -19 49 0 101 5
116 12 21 10 28 10 31 1 3 -7 11 -9 19 -6 22 8 17 -15 -6 -27 -11 -6 -20 -15
-20 -21 0 -6 4 -7 10 -4 6 3 7 -1 4 -9 -4 -10 -1 -16 7 -16 8 0 5 -6 -6 -14
-18 -13 -18 -14 7 -9 14 3 29 0 32 -6 9 -14 30 -14 81 0 32 9 37 13 25 23 -9
6 -21 23 -27 38 -8 19 -17 26 -28 22 -8 -3 -15 -10 -15 -15 0 -5 -9 -9 -20 -9
-11 0 -20 7 -20 16 0 11 6 14 20 9 11 -4 20 -2 20 4 0 6 9 11 20 11 11 0 20
-5 20 -11 0 -6 7 -9 15 -5 8 3 15 1 15 -5 0 -5 11 -21 25 -34 16 -17 20 -25
10 -25 -8 0 -15 -4 -15 -9 0 -5 -17 -16 -37 -24 -21 -9 -31 -16 -23 -17 33 -1
-48 -32 -87 -34 -22 0 -37 -4 -32 -7 22 -13 -353 -104 -421 -101 -21 0 -29 -2
-21 -7 19 -12 -80 -21 -103 -9 -12 7 -16 7 -12 0 11 -19 -38 -29 -216 -45 -14
-1 -24 -5 -22 -8 4 -7 -22 -10 -276 -39 -401 -44 -933 -51 -1230 -16 -243 29
-305 38 -316 47 -6 5 -13 6 -16 4 -12 -12 -490 94 -633 140 -27 9 -72 22 -100
30 -158 42 -477 163 -468 178 3 6 1 7 -6 3 -43 -27 -774 347 -922 472 -16 13
-29 21 -29 18 0 -7 -32 16 -225 159 -335 249 -698 616 -1027 1037 -59 76 -96
132 -92 139 4 7 3 9 -4 5 -9 -5 -232 300 -232 319 0 3 -7 13 -15 21 -8 9 -15
21 -14 27 0 8 2 8 6 -1 2 -6 9 -10 14 -6z m8953 -70 c-3 -9 -10 -13 -15 -10
-5 3 -3 11 4 19 15 16 19 13 11 -9z m-5804 -16 c0 -5 -4 -10 -9 -10 -6 0 -13
5 -16 10 -3 6 1 10 9 10 9 0 16 -4 16 -10z m-230 -10 c8 -5 11 -10 5 -10 -5 0
-17 5 -25 10 -8 5 -10 10 -5 10 6 0 17 -5 25 -10z m2890 6 c0 -2 -7 -7 -16
-10 -8 -3 -12 -2 -9 4 6 10 25 14 25 6z m3112 -42 c-8 -15 -9 -15 -15 0 -4 10
-3 15 3 11 6 -3 10 2 11 12 0 10 3 13 5 6 3 -7 1 -20 -4 -29z m-5737 16 c3 -6
-1 -7 -9 -4 -18 7 -21 14 -7 14 6 0 13 -4 16 -10z m142 -16 c-3 -3 -12 -4 -19
-1 -8 3 -5 6 6 6 11 1 17 -2 13 -5z m56 -1 c-7 -2 -21 -2 -30 0 -10 3 -4 5 12
5 17 0 24 -2 18 -5z m5510 -48 c-3 -9 -8 -14 -10 -11 -3 3 -2 9 2 15 9 16 15
13 8 -4z m-4733 -25 c-12 -8 -10 -10 9 -10 13 0 22 -2 19 -5 -2 -3 -27 -2 -54
2 l-49 7 35 7 c53 10 56 10 40 -1z m-603 -6 c-3 -3 -12 -4 -19 -1 -8 3 -5 6 6
6 11 1 17 -2 13 -5z m170 0 c-3 -3 -12 -4 -19 -1 -8 3 -5 6 6 6 11 1 17 -2 13
-5z m290 0 c-3 -3 -12 -4 -19 -1 -8 3 -5 6 6 6 11 1 17 -2 13 -5z m-412 -14
c19 -8 19 -9 -2 -9 -12 -1 -25 4 -28 9 -7 12 2 12 30 0z m290 -15 c6 -2 -39
-3 -100 -4 -60 0 -119 4 -130 8 -19 8 208 3 230 -4z m143 8 c-10 -2 -26 -2
-35 0 -10 3 -2 5 17 5 19 0 27 -2 18 -5z m65 0 c-7 -2 -19 -2 -25 0 -7 3 -2 5
12 5 14 0 19 -2 13 -5z m-166 -9 c-3 -3 -12 -4 -19 -1 -8 3 -5 6 6 6 11 1 17
-2 13 -5z m-4176 -121 c13 -16 12 -17 -3 -4 -10 7 -18 15 -18 17 0 8 8 3 21
-13z m9009 -34 c-7 -11 -14 -18 -17 -15 -3 3 0 12 7 21 18 21 23 19 10 -6z
m-8919 -86 c117 -156 333 -414 364 -435 5 -4 7 -8 4 -8 -10 0 290 -310 418
-432 34 -31 58 -60 55 -63 -3 -3 0 -5 7 -5 7 0 32 -20 57 -45 24 -25 47 -45
50 -44 3 0 37 -29 75 -65 38 -36 72 -66 75 -66 7 0 178 -136 220 -175 18 -16
38 -31 46 -33 7 -2 22 -11 33 -21 26 -23 295 -200 360 -236 69 -39 96 -61 87
-70 -4 -5 -1 -5 6 -1 7 4 33 -5 60 -21 26 -16 68 -40 94 -53 26 -13 44 -28 41
-34 -3 -5 -1 -6 5 -2 15 9 55 -18 44 -29 -4 -5 -2 -5 5 -2 15 9 208 -84 193
-93 -6 -4 2 -7 17 -7 15 0 57 -14 93 -31 215 -100 666 -258 920 -322 509 -128
941 -180 1490 -180 815 0 1628 172 2400 506 111 48 620 308 725 371 280 168
281 168 633 420 86 61 132 77 148 51 17 -27 -618 -570 -646 -553 -6 4 -9 2 -8
-4 2 -7 -255 -191 -268 -191 -2 0 -45 -25 -96 -57 -131 -79 -219 -124 -231
-116 -5 3 -7 2 -4 -4 6 -9 -199 -113 -368 -188 -263 -116 -654 -241 -985 -314
-788 -175 -1621 -141 -2555 104 -99 26 -190 50 -202 52 -13 3 -23 10 -23 15 0
5 -4 7 -8 4 -20 -12 -409 125 -657 232 -247 107 -515 245 -780 402 -133 79
-366 228 -375 239 -3 4 -34 27 -70 53 -89 62 -232 176 -247 196 -7 9 -13 13
-13 9 0 -12 -209 164 -363 306 -78 72 -141 137 -140 144 0 8 -1 12 -4 9 -9 -9
-50 28 -160 146 -193 207 -369 419 -523 628 -35 47 -67 91 -73 98 -5 6 -7 12
-5 12 3 0 39 -44 79 -97z m3866 91 c-3 -3 -12 -4 -19 -1 -8 3 -5 6 6 6 11 1
17 -2 13 -5z m208 -34 c-11 -5 -27 -9 -35 -9 -9 0 -8 4 5 9 11 5 27 9 35 9 9
0 8 -4 -5 -9z m461 -30 c-37 -12 -139 -11 -111 1 11 4 47 8 80 7 49 0 55 -1
31 -8z m4335 -17 c-12 -20 -14 -14 -5 12 4 9 9 14 11 11 3 -2 0 -13 -6 -23z
m-4474 11 c-3 -3 -12 -4 -19 -1 -8 3 -5 6 6 6 11 1 17 -2 13 -5z m4356 -179
c-3 -9 -8 -14 -10 -11 -3 3 -2 9 2 15 9 16 15 13 8 -4z m-72 -103 c-30 -43
-48 -56 -57 -41 -4 7 -3 9 3 6 11 -7 36 18 46 46 4 9 11 17 17 17 6 0 2 -13
-9 -28z m-6064 -68 c-3 -3 -12 -4 -19 -1 -8 3 -5 6 6 6 11 1 17 -2 13 -5z
m5524 -87 c-10 -9 -11 -8 -5 6 3 10 9 15 12 12 3 -3 0 -11 -7 -18z m-11 -32
c0 -8 -5 -15 -11 -15 -15 0 -59 -36 -54 -44 3 -3 2 -4 -1 -1 -4 2 -17 -7 -29
-21 -13 -15 -28 -23 -34 -20 -7 4 -11 -1 -11 -13 0 -11 -9 -25 -21 -31 -11 -7
-18 -14 -15 -17 8 -9 -18 -31 -31 -26 -7 3 -13 0 -13 -6 0 -6 -3 -10 -7 -10
-19 3 -22 -3 -13 -27 7 -16 7 -23 0 -19 -6 3 -10 -1 -10 -9 0 -9 -7 -16 -15
-16 -8 0 -15 -7 -15 -15 0 -9 -9 -15 -24 -15 -18 0 -25 -6 -28 -22 -2 -15 -11
-24 -25 -26 -40 -6 -47 -28 -17 -56 34 -31 19 -40 -47 -28 -41 8 -48 7 -67
-15 -12 -14 -22 -29 -22 -34 0 -5 -13 -9 -29 -9 -17 0 -33 -4 -36 -10 -3 -5
-15 -10 -26 -10 -10 0 -19 -4 -19 -10 0 -5 -15 -10 -32 -10 -30 1 -31 2 -13
12 11 7 21 11 23 10 1 -2 13 9 26 23 13 14 26 25 30 25 4 0 14 7 22 15 9 8 30
16 47 16 18 1 24 3 15 6 -22 5 -24 43 -3 43 8 0 15 5 15 11 0 5 4 8 9 4 5 -3
24 8 43 25 18 17 41 33 52 36 11 4 28 15 39 25 11 10 24 16 29 13 4 -3 8 2 8
11 0 9 4 14 9 10 5 -3 12 4 16 14 3 11 22 30 41 41 18 12 34 24 34 26 0 3 -4
2 -10 -1 -5 -3 -10 0 -10 7 0 7 11 14 25 14 24 2 55 25 55 41 0 12 38 43 51
43 6 0 8 7 5 16 -4 12 -2 15 9 10 9 -3 19 3 25 15 6 11 15 17 21 14 5 -4 9 1
9 9 0 9 7 16 15 16 8 0 15 -7 15 -15z m370 -35 c0 -5 -5 -10 -11 -10 -5 0 -7
5 -4 10 3 6 8 10 11 10 2 0 4 -4 4 -10z m-2351 -234 c-7 -6 -293 -173 -349
-203 -30 -17 -100 -54 -155 -83 -55 -29 -99 -57 -97 -62 1 -5 -2 -7 -7 -4 -8
5 -67 -20 -226 -94 -22 -10 -65 -29 -95 -40 -30 -12 -66 -27 -80 -33 -14 -6
-29 -12 -35 -12 -5 -1 -17 -5 -25 -8 -29 -12 -105 -38 -155 -53 -27 -8 -63
-19 -80 -24 -16 -5 -87 -25 -157 -44 -70 -19 -131 -37 -136 -40 -12 -7 -242
-47 -372 -65 -232 -32 -331 -40 -545 -45 -267 -5 -262 1 25 34 434 50 1031
174 1340 277 127 43 356 131 465 180 262 116 380 173 535 255 80 42 147 74
149 72 2 -2 2 -6 0 -8z m3717 -13 c-10 -10 -19 5 -10 18 6 11 8 11 12 0 2 -7
1 -15 -2 -18z m-4859 -69 c-3 -3 -12 -4 -19 -1 -8 3 -5 6 6 6 11 1 17 -2 13
-5z m3193 -13 c0 -5 -7 -12 -16 -15 -14 -5 -15 -4 -4 9 14 17 20 19 20 6z
m-6561 -68 c2 -2 -1 -3 -7 -3 -6 0 -24 12 -39 26 l-28 26 35 -23 c19 -12 37
-24 39 -26z m2018 1 c-3 -3 -12 -4 -19 -1 -8 3 -5 6 6 6 11 1 17 -2 13 -5z
m4373 -99 c-14 -17 -36 -20 -44 -6 -4 5 3 7 14 4 11 -3 20 0 20 6 0 6 5 11 11
11 8 0 8 -5 -1 -15z m-6219 -12 c13 -17 13 -17 -6 -3 -11 8 -22 16 -24 17 -2
2 0 3 6 3 6 0 17 -8 24 -17z m5674 -10 c-11 -3 -25 -12 -31 -21 -13 -18 -46
-9 -38 11 3 9 21 14 47 14 23 0 33 -2 22 -4z m452 -35 c-3 -8 -6 -5 -6 6 -1
11 2 17 5 13 3 -3 4 -12 1 -19z m1685 -10 c-7 -7 -12 -8 -12 -2 0 14 12 26 19
19 2 -3 -1 -11 -7 -17z m-1762 -58 c0 -5 -5 -10 -11 -10 -5 0 -7 5 -4 10 3 6
8 10 11 10 2 0 4 -4 4 -10z m-640 -65 c-14 -16 -40 -20 -40 -6 0 10 17 19 39
20 11 1 11 -2 1 -14z m70 -25 c0 -5 -4 -10 -10 -10 -5 0 -10 5 -10 10 0 6 5
10 10 10 6 0 10 -4 10 -10z m495 -10 c-10 -11 -23 -20 -29 -20 -6 0 0 9 14 20
32 25 38 25 15 0z m-55 -45 c-7 -9 -15 -13 -19 -10 -3 3 1 10 9 15 21 14 24
12 10 -5z m-40 1 c0 -2 -7 -9 -15 -16 -13 -11 -14 -10 -9 4 5 14 24 23 24 12z
m1707 -62 c-3 -3 -12 -4 -19 -1 -8 3 -5 6 6 6 11 1 17 -2 13 -5z m13 -18 c0
-3 -4 -8 -10 -11 -5 -3 -10 -1 -10 4 0 6 5 11 10 11 6 0 10 -2 10 -4z m-6500
-176 c12 -8 12 -10 -5 -9 -11 0 -29 4 -40 9 -18 8 -18 9 5 9 14 0 32 -4 40 -9z
m3776 -43 c4 -4 -2 -7 -14 -7 -12 0 -22 4 -22 9 0 10 26 9 36 -2z m2944 -112
c0 -8 -4 -15 -9 -15 -13 0 -22 16 -14 24 11 11 23 6 23 -9z m-2585 -15 c0 -7
-5 -15 -10 -17 -6 -2 -11 6 -11 17 0 11 5 19 11 17 5 -2 10 -10 10 -17z m2516
-23 c-8 -8 -11 -7 -11 4 0 20 13 34 18 19 3 -7 -1 -17 -7 -23z m-3188 6 c-7
-2 -19 -2 -25 0 -7 3 -2 5 12 5 14 0 19 -2 13 -5z m441 -37 c-3 -8 -12 -12
-21 -9 -12 5 -12 7 -1 14 20 13 28 11 22 -5z m2746 -1 c0 -19 -9 -19 -34 0
-19 14 -19 15 7 15 17 0 27 -5 27 -15z m-75 -51 c-26 -26 -17 -40 23 -35 6 1
12 -2 12 -7 0 -5 -18 -9 -40 -8 -22 0 -40 5 -40 10 0 5 -7 1 -15 -10 -8 -11
-15 -14 -15 -6 0 6 -7 12 -16 12 -14 0 -14 3 -4 15 11 13 15 13 21 3 7 -10 9
-10 9 0 0 6 5 12 10 12 6 0 19 9 30 20 12 12 25 18 30 15 6 -4 4 -12 -5 -21z
m112 -39 c-15 -16 -19 -13 -11 9 3 9 10 13 15 10 5 -3 3 -11 -4 -19z m-2862
-10 c-16 -8 -39 -14 -50 -14 -15 0 -13 3 10 14 17 7 39 13 50 13 15 0 13 -3
-10 -13z m2889 -10 c-7 -16 -24 -21 -24 -6 0 8 7 13 27 20 1 1 0 -6 -3 -14z
m46 0 c0 -2 -10 -9 -22 -15 -22 -11 -22 -10 -4 4 21 17 26 19 26 11z m-328
-27 c-7 -7 -12 -8 -12 -2 0 14 12 26 19 19 2 -3 -1 -11 -7 -17z m183 -28 c-3
-5 -11 -10 -16 -10 -6 0 -7 5 -4 10 3 6 11 10 16 10 6 0 7 -4 4 -10z m25 -15
c-9 -11 -9 -15 -1 -15 7 0 9 -4 6 -10 -4 -6 -11 -5 -20 3 -14 13 -3 37 17 37
6 0 5 -7 -2 -15z m-1480 -731 c0 -8 -4 -13 -9 -10 -5 3 -14 -1 -21 -9 -7 -8
-18 -15 -26 -15 -7 0 -19 -9 -26 -19 -8 -10 -25 -21 -38 -23 -18 -2 -26 -10
-29 -28 -3 -25 -3 -25 18 -6 21 19 22 19 39 2 16 -16 16 -17 -10 -11 -22 6
-28 4 -28 -8 0 -9 -4 -18 -9 -22 -12 -7 -43 24 -36 36 4 5 -4 9 -17 9 -18 0
-20 2 -8 10 8 5 12 12 8 15 -3 3 -14 -2 -24 -12 -17 -17 -17 -18 2 -21 32 -6
41 -22 11 -22 -15 0 -30 -8 -36 -19 -13 -24 -5 -31 38 -32 l36 -1 -34 -10
c-27 -7 -32 -12 -20 -19 10 -7 4 -8 -20 -4 -21 5 -31 4 -27 -3 6 -10 -23 -26
-32 -17 -3 3 1 5 8 5 7 0 11 2 8 5 -3 4 -18 3 -34 -1 -25 -6 -26 -8 -9 -15 19
-7 19 -8 0 -8 -12 -1 -26 -6 -32 -12 -13 -13 -43 -5 -43 11 0 5 8 10 18 11 9
0 12 3 7 5 -6 2 -28 -5 -50 -16 -29 -15 -34 -20 -18 -20 12 0 25 -4 28 -10 8
-13 -6 -13 -39 0 -15 5 -26 6 -26 0 0 -4 8 -10 18 -12 14 -3 13 -5 -6 -10 -12
-3 -20 -2 -16 3 3 5 -5 9 -18 9 -18 0 -20 -2 -8 -10 13 -8 12 -10 -5 -11 -11
-1 -28 -1 -38 -1 -10 1 -16 -2 -13 -7 5 -7 -36 -22 -69 -25 -5 -1 -13 -5 -17
-10 -4 -6 -25 -10 -47 -10 -23 -1 -41 -4 -41 -7 0 -6 -138 -48 -261 -79 -99
-24 -240 -46 -284 -44 -106 4 -105 4 -30 29 39 13 78 21 89 18 12 -3 16 -1 12
6 -4 6 0 11 11 11 10 0 42 9 71 19 28 11 52 17 52 14 0 -3 6 -1 13 5 7 6 46
23 87 37 41 15 89 32 105 40 17 7 41 16 55 20 14 3 34 10 45 14 11 5 40 16 65
26 25 9 60 23 78 31 18 8 44 14 57 14 14 0 25 4 25 9 0 5 12 12 28 16 15 3 49
17 75 31 27 13 55 24 64 24 8 0 17 9 20 19 3 13 20 23 51 31 26 6 49 11 51 10
2 -1 7 3 10 9 4 5 23 11 44 13 20 1 37 5 37 9 0 3 18 9 40 13 22 3 40 10 40
14 0 9 47 29 73 31 9 1 17 -6 17 -15z m130 -78 c0 -3 -13 -11 -29 -19 -23 -12
-28 -12 -24 -1 2 7 14 15 26 17 12 2 23 5 25 6 1 0 2 -1 2 -3z m-217 -75 c3
-14 -2 -21 -19 -25 -34 -9 -38 -9 -42 3 -2 6 8 11 23 11 20 0 26 4 21 15 -3 8
-2 15 3 15 5 0 11 -9 14 -19z m-88 -11 c-3 -5 -13 -10 -21 -10 -8 0 -14 5 -14
10 0 6 9 10 21 10 11 0 17 -4 14 -10z m-2156 -218 c3 -5 13 -11 21 -14 8 -3
-5 -5 -30 -5 -25 0 -65 -3 -90 -7 l-45 -6 40 15 c22 8 49 15 60 16 14 1 10 4
-10 9 -27 7 -26 7 9 5 21 -2 42 -8 45 -13z m109 -6 c10 -10 -62 -6 -78 4 -11
8 -3 9 28 6 24 -2 46 -7 50 -10z m-251 -2 c-3 -3 -12 -4 -19 -1 -8 3 -5 6 6 6
11 1 17 -2 13 -5z m1123 -115 c21 -1 19 -3 -10 -10 -43 -11 -92 -3 -69 12 7 5
23 7 34 4 11 -2 31 -5 45 -6z"/>
<path d="M6120 13330 c0 -5 5 -10 10 -10 6 0 10 5 10 10 0 6 -4 10 -10 10 -5
0 -10 -4 -10 -10z"/>
<path d="M6020 13290 c-12 -8 -11 -10 8 -10 12 0 22 5 22 10 0 13 -11 13 -30
0z"/>
<path d="M5900 13260 c-9 -6 -10 -10 -3 -10 6 0 15 5 18 10 8 12 4 12 -15 0z"/>
<path d="M5840 13230 c-18 -12 -2 -12 25 0 13 6 15 9 5 9 -8 0 -22 -4 -30 -9z"/>
<path d="M5610 13221 c0 -5 -8 -12 -17 -14 -11 -3 -7 -5 10 -6 18 -1 27 4 27
14 0 8 -4 15 -10 15 -5 0 -10 -4 -10 -9z"/>
<path d="M5583 13140 c-13 -5 -23 -14 -23 -21 0 -6 -7 -9 -15 -5 -17 6 -19 -2
-6 -23 7 -11 11 -10 21 5 9 15 21 19 45 16 30 -4 33 -2 28 17 -6 23 -16 25
-50 11z"/>
<path d="M5480 13096 c-6 -8 -18 -12 -25 -10 -7 3 -31 -10 -52 -29 -21 -19
-47 -36 -57 -38 -29 -6 -31 -27 -2 -25 13 0 22 4 20 7 -2 4 3 12 11 19 12 10
16 9 20 -2 6 -14 55 -24 55 -10 0 4 16 16 35 27 29 15 33 20 20 27 -19 11 -20
28 0 28 8 0 15 5 15 10 0 15 -26 12 -40 -4z"/>
<path d="M4385 12620 c-3 -5 -1 -10 4 -10 6 0 11 5 11 10 0 6 -2 10 -4 10 -3
0 -8 -4 -11 -10z"/>
<path d="M4340 12590 c0 -5 7 -7 15 -4 8 4 15 8 15 10 0 2 -7 4 -15 4 -8 0
-15 -4 -15 -10z"/>
<path d="M4395 12259 c-4 -6 -5 -12 -2 -15 2 -3 7 2 10 11 7 17 1 20 -8 4z"/>
<path d="M4315 12200 c3 -5 12 -7 20 -3 21 7 19 13 -6 13 -11 0 -18 -4 -14
-10z"/>
<path d="M4283 12177 c2 -6 -2 -18 -10 -26 -13 -12 -14 -11 -9 7 6 17 3 19
-14 15 -20 -5 -29 -33 -10 -33 6 0 10 -5 10 -11 0 -8 -5 -8 -15 1 -12 10 -21
7 -50 -19 -20 -17 -32 -31 -28 -31 4 0 3 -4 -3 -8 -6 -4 -14 -17 -18 -29 -6
-17 -3 -23 9 -23 9 0 14 -4 11 -9 -3 -5 0 -11 8 -14 17 -7 29 32 15 49 -7 8
-6 15 2 19 6 4 15 2 19 -5 10 -16 76 32 85 61 4 10 10 19 15 19 4 0 7 8 5 18
-2 9 -4 20 -4 25 -1 4 -6 7 -12 7 -6 0 -9 -6 -6 -13z"/>
<path d="M3978 11940 c-20 -22 -7 -36 19 -21 12 7 13 10 4 11 -7 0 -11 6 -7
15 7 20 4 19 -16 -5z"/>
<path d="M3942 11830 c-7 -11 -8 -20 -3 -20 9 0 24 30 18 36 -1 2 -8 -6 -15
-16z"/>
<path d="M3867 11823 c-4 -3 -7 -11 -7 -17 0 -6 5 -5 12 2 6 6 9 14 7 17 -3 3
-9 2 -12 -2z"/>
<path d="M3890 11785 c6 -8 9 -19 5 -24 -3 -7 0 -8 9 -5 12 5 13 9 3 25 -6 10
-16 19 -21 19 -4 0 -3 -7 4 -15z"/>
<path d="M3915 11790 c3 -5 8 -10 11 -10 2 0 4 5 4 10 0 6 -5 10 -11 10 -5 0
-7 -4 -4 -10z"/>
<path d="M3955 11790 c-3 -5 -1 -10 4 -10 6 0 11 5 11 10 0 6 -2 10 -4 10 -3
0 -8 -4 -11 -10z"/>
<path d="M3860 11775 c7 -9 15 -13 17 -11 7 7 -7 26 -19 26 -6 0 -6 -6 2 -15z"/>
<path d="M3831 11704 c0 -11 3 -14 6 -6 3 7 2 16 -1 19 -3 4 -6 -2 -5 -13z"/>
<path d="M3800 11665 c0 -18 -12 -19 -28 -3 -9 9 -11 5 -8 -18 10 -72 33 -82
53 -23 7 19 12 30 13 24 0 -5 4 -3 9 5 12 18 5 30 -20 30 -10 0 -19 -7 -19
-15z"/>
<path d="M3735 11613 c-3 -10 -1 -19 4 -21 19 -6 12 -20 -11 -24 -15 -2 -24
-11 -26 -25 -3 -20 -11 -26 -32 -25 -3 0 -5 -13 -6 -29 -1 -38 -18 -57 -20
-24 -1 14 2 22 7 19 10 -6 12 9 3 19 -16 16 -134 -161 -134 -201 0 -14 -2 -15
-9 -3 -8 12 -11 9 -16 -12 -4 -14 -13 -31 -21 -38 -8 -6 -14 -19 -14 -28 0
-14 2 -14 11 -1 9 13 10 13 6 0 -2 -8 -10 -14 -18 -13 -8 2 -19 -7 -25 -20
-33 -66 -90 -173 -95 -177 -7 -6 -75 -148 -90 -188 -13 -34 -10 -31 61 69 33
46 60 90 60 97 0 8 5 10 12 6 8 -5 9 -2 5 10 -4 9 -3 15 2 12 5 -3 16 4 24 17
9 12 37 50 62 85 25 35 43 68 39 74 -4 6 -3 8 3 5 10 -6 80 82 76 95 -2 4 6
18 18 30 84 94 99 115 96 133 -1 11 -8 19 -14 18 -7 -2 -10 4 -7 12 8 20 24
19 24 -2 0 -15 2 -15 19 1 12 11 17 25 14 34 -5 12 -2 14 11 9 9 -4 15 -3 11
2 -3 6 2 14 10 19 14 7 13 12 -8 32 -14 13 -23 30 -20 37 3 7 3 13 0 13 -3 0
-8 -8 -12 -17z m-140 -223 c-5 -16 -10 -19 -18 -11 -7 7 -6 15 3 26 17 20 24
13 15 -15z m-200 -323 c-8 -21 -18 -37 -20 -37 -3 0 2 16 10 36 8 20 15 39 15
42 0 3 2 3 5 0 3 -3 -2 -21 -10 -41z m-75 -141 c0 -3 -4 -8 -10 -11 -5 -3 -10
-1 -10 4 0 6 5 11 10 11 6 0 10 -2 10 -4z"/>
<path d="M3706 11605 c-9 -26 -7 -32 5 -12 6 10 9 21 6 23 -2 3 -7 -2 -11 -11z"/>
<path d="M3681 11564 c0 -11 3 -14 6 -6 3 7 2 16 -1 19 -3 4 -6 -2 -5 -13z"/>
<path d="M3742 11428 c-7 -7 -12 -15 -12 -20 0 -12 28 2 34 18 7 17 -6 18 -22
2z"/>
<path d="M10310 7214 c0 -16 -9 -61 -20 -99 -11 -38 -20 -82 -20 -96 0 -15 -7
-29 -15 -33 -8 -3 -15 -13 -15 -23 0 -10 -20 -65 -44 -123 -24 -58 -56 -136
-72 -175 -16 -38 -43 -96 -61 -127 -17 -31 -34 -66 -38 -77 -7 -23 -93 -179
-168 -304 -26 -43 -47 -82 -47 -86 0 -4 -11 -18 -25 -31 -14 -13 -25 -27 -25
-31 0 -13 -126 -201 -160 -239 -17 -19 -39 -48 -48 -64 -9 -17 -27 -41 -39
-55 -12 -14 -32 -40 -45 -58 -97 -133 -527 -573 -559 -573 -5 0 -9 -3 -9 -7 0
-5 -13 -17 -29 -28 -16 -10 -28 -22 -25 -26 2 -4 -5 -11 -17 -14 -20 -7 -120
-78 -192 -137 -15 -13 -33 -25 -40 -27 -7 -2 -32 -20 -57 -40 -25 -20 -58 -43
-75 -51 -16 -8 -34 -21 -38 -27 -4 -7 -15 -13 -22 -13 -8 0 -15 -4 -15 -9 0
-5 -14 -15 -32 -22 -18 -7 -39 -20 -48 -29 -9 -9 -36 -27 -61 -39 -57 -29 -78
-41 -112 -68 -16 -13 -33 -23 -38 -23 -6 0 -56 -22 -112 -49 -56 -26 -127 -58
-157 -71 -30 -12 -66 -28 -80 -35 -14 -7 -54 -23 -90 -35 -36 -12 -78 -28 -95
-35 -36 -15 -194 -68 -250 -83 -126 -34 -218 -55 -289 -68 -173 -30 -405 -62
-490 -69 -89 -7 -97 -16 -26 -29 22 -4 28 -3 16 2 -18 8 -18 9 -2 15 26 10 64
9 48 -2 -11 -7 -10 -10 3 -15 9 -3 24 -6 33 -5 14 0 13 2 -2 8 -13 5 -1 7 33
7 49 -1 51 -2 24 -12 l-28 -12 25 -5 c23 -4 23 -4 -5 -7 -27 -2 -25 -3 15 -13
25 -6 64 -11 87 -11 23 0 40 -3 37 -7 -4 -8 45 -14 232 -30 293 -26 644 34
979 166 33 13 75 29 92 35 18 7 30 17 26 23 -3 6 -1 7 6 3 14 -9 53 3 46 14
-3 5 3 8 14 7 53 -4 469 209 653 335 15 10 31 18 36 18 5 0 16 8 23 17 12 15
12 16 -3 10 -25 -9 -22 0 3 14 15 8 19 8 15 0 -14 -22 11 -10 44 22 18 17 30
25 25 17 -8 -13 -6 -13 8 -1 9 7 14 18 10 24 -3 6 -1 7 6 3 14 -9 43 12 36 24
-3 5 0 12 6 16 8 4 9 3 5 -4 -15 -24 13 -11 37 17 14 17 27 28 29 26 2 -2 38
27 78 65 41 38 78 70 83 70 4 0 7 5 7 11 0 5 -4 7 -10 4 -5 -3 -10 -1 -10 5 0
7 6 10 14 7 30 -12 300 300 436 504 63 94 140 218 140 224 0 4 -6 3 -12 -1 -8
-4 -10 -3 -5 2 5 5 14 9 19 9 6 0 13 6 16 14 3 8 0 11 -7 7 -7 -4 -9 -1 -5 8
3 9 10 14 16 13 13 -3 109 184 103 201 -3 7 -1 11 4 8 7 -5 68 122 76 159 1 5
11 31 23 57 45 101 131 395 162 553 25 125 30 154 49 285 20 134 30 334 18
347 -4 3 -7 -7 -7 -23z m-13 -241 c-2 -16 -4 -5 -4 22 0 28 2 40 4 28 2 -13 2
-35 0 -50z m-40 -215 c-3 -8 -6 -5 -6 6 -1 11 2 17 5 13 3 -3 4 -12 1 -19z m0
-60 c-3 -8 -6 -5 -6 6 -1 11 2 17 5 13 3 -3 4 -12 1 -19z m-246 -721 c-10 -9
-11 -8 -5 6 3 10 9 15 12 12 3 -3 0 -11 -7 -18z m1 -79 c-7 -7 -12 -8 -12 -2
0 14 12 26 19 19 2 -3 -1 -11 -7 -17z m-224 -403 c-3 -3 -9 2 -12 12 -6 14 -5
15 5 6 7 -7 10 -15 7 -18z m-273 -385 c3 -5 1 -10 -4 -10 -6 0 -11 5 -11 10 0
6 2 10 4 10 3 0 8 -4 11 -10z m-15 -24 c0 -3 -4 -8 -10 -11 -5 -3 -10 -1 -10
4 0 6 5 11 10 11 6 0 10 -2 10 -4z m-170 -136 c0 -5 -5 -10 -11 -10 -5 0 -7 5
-4 10 3 6 8 10 11 10 2 0 4 -4 4 -10z m-200 -247 c0 -11 -5 -11 -20 -3 -11 6
-20 13 -20 15 0 2 9 3 20 2 11 -1 20 -7 20 -14z m-40 -13 c0 -5 -2 -10 -4 -10
-3 0 -8 5 -11 10 -3 6 -1 10 4 10 6 0 11 -4 11 -10z m-13 -26 c-3 -3 -12 -4
-19 -1 -8 3 -5 6 6 6 11 1 17 -2 13 -5z m-52 -44 c3 -6 -1 -7 -9 -4 -18 7 -21
14 -7 14 6 0 13 -4 16 -10z m-870 -470 c-3 -5 -12 -10 -18 -10 -7 0 -6 4 3 10
19 12 23 12 15 0z m-492 -167 c-7 -2 -19 -2 -25 0 -7 3 -2 5 12 5 14 0 19 -2
13 -5z m-910 -10 c-7 -2 -19 -2 -25 0 -7 3 -2 5 12 5 14 0 19 -2 13 -5z m-36
-19 c-3 -3 -12 -4 -19 -1 -8 3 -5 6 6 6 11 1 17 -2 13 -5z m896 -1 c-7 -2 -19
-2 -25 0 -7 3 -2 5 12 5 14 0 19 -2 13 -5z m-233 -13 c0 -5 -4 -10 -10 -10 -5
0 -10 5 -10 10 0 6 5 10 10 10 6 0 10 -4 10 -10z"/>
<path d="M9861 7124 c0 -11 3 -14 6 -6 3 7 2 16 -1 19 -3 4 -6 -2 -5 -13z"/>
<path d="M3210 6983 c0 -13 5 -23 10 -23 13 0 13 11 0 30 -8 12 -10 11 -10 -7z"/>
<path d="M3252 6870 c0 -14 2 -19 5 -12 2 6 2 18 0 25 -3 6 -5 1 -5 -13z"/>
<path d="M9838 6670 c-10 -9 -18 -24 -18 -34 0 -9 -4 -15 -9 -12 -10 7 -20
-23 -14 -41 6 -16 23 -17 23 -1 0 6 10 31 21 55 24 49 23 59 -3 33z"/>
<path d="M9715 6647 c4 -19 1 -29 -10 -33 -23 -9 -19 -33 5 -27 22 6 25 34 9
68 -8 16 -8 15 -4 -8z"/>
<path d="M9735 6590 c-4 -7 -2 -16 5 -20 10 -6 9 -9 -1 -13 -10 -4 -9 -6 4 -6
18 -1 22 16 8 38 -7 10 -10 10 -16 1z"/>
<path d="M9695 6539 c-10 -15 3 -25 16 -12 7 7 7 13 1 17 -6 3 -14 1 -17 -5z"/>
<path d="M9735 6503 c-8 -26 -16 -28 -33 -10 -26 25 -50 9 -72 -48 -6 -17 -7
-24 0 -20 6 3 10 12 10 19 0 7 6 20 13 30 12 16 13 14 13 -18 0 -20 6 -42 13
-48 10 -11 10 -8 2 15 -14 37 -14 50 1 41 7 -5 9 -2 5 9 -4 11 -2 14 9 10 7
-3 14 -9 14 -14 0 -4 7 -6 15 -3 11 4 15 -1 15 -17 0 -32 16 -13 29 36 9 35 8
38 -4 22 -13 -18 -13 -18 -18 0 -4 16 -6 15 -12 -4z"/>
<path d="M9705 6430 c9 -30 13 -35 21 -27 3 3 -2 16 -11 29 l-17 23 7 -25z"/>
<path d="M9631 6394 c0 -11 3 -14 6 -6 3 7 2 16 -1 19 -3 4 -6 -2 -5 -13z"/>
<path d="M3550 6196 c0 -9 5 -16 10 -16 6 0 10 4 10 9 0 6 -4 13 -10 16 -5 3
-10 -1 -10 -9z"/>
<path d="M9505 6160 c-3 -6 1 -7 9 -4 18 7 21 14 7 14 -6 0 -13 -4 -16 -10z"/>
<path d="M3760 5818 c0 -17 -3 -19 -12 -10 -20 20 -29 14 -22 -14 4 -17 2 -29
-7 -35 -10 -6 -6 -9 14 -9 15 0 26 -3 26 -7 -3 -21 2 -34 11 -28 6 4 17 2 24
-4 7 -6 21 -8 31 -5 13 5 14 9 3 15 -11 7 -10 11 2 19 13 8 13 12 -4 27 -16
16 -18 16 -13 1 4 -11 -1 -18 -16 -22 -32 -8 -41 8 -23 42 20 39 20 52 1 52
-9 0 -15 -9 -15 -22z"/>
<path d="M3810 5680 c0 -5 5 -10 10 -10 6 0 10 5 10 10 0 6 -4 10 -10 10 -5 0
-10 -4 -10 -10z"/>
<path d="M3836 5664 c-7 -18 10 -27 34 -19 27 9 25 22 -4 27 -15 3 -27 0 -30
-8z"/>
<path d="M9145 5639 c-11 -16 -1 -19 13 -3 7 8 8 14 3 14 -5 0 -13 -5 -16 -11z"/>
<path d="M9200 5631 c0 -7 -5 -9 -11 -5 -6 3 -15 0 -20 -7 -15 -23 -9 -35 6
-15 11 14 15 16 15 5 1 -10 4 -9 11 4 6 10 8 21 5 24 -3 4 -6 1 -6 -6z"/>
<path d="M9107 5614 c-4 -4 -4 -17 -1 -29 4 -15 0 -24 -10 -28 -11 -4 -13 -1
-9 11 3 10 -10 2 -30 -17 -33 -31 -36 -37 -24 -55 8 -11 20 -22 28 -24 8 -3
11 -1 7 3 -4 4 1 15 11 24 10 9 21 26 25 39 5 13 10 21 13 18 8 -8 33 14 33
28 0 6 -7 2 -15 -8 -8 -11 -15 -15 -15 -9 0 6 -3 19 -7 29 -4 12 -3 15 5 10 7
-4 12 -2 12 3 0 12 -13 15 -23 5z m-60 -99 c0 -8 -4 -12 -9 -9 -5 3 -6 10 -3
15 9 13 12 11 12 -6z"/>
<path d="M3910 5571 c0 -6 9 -9 20 -8 11 1 20 5 20 9 0 4 -9 8 -20 8 -11 0
-20 -4 -20 -9z"/>
<path d="M3980 5521 c0 -6 4 -12 8 -15 5 -3 9 1 9 9 0 8 -4 15 -9 15 -4 0 -8
-4 -8 -9z"/>
<path d="M8990 5485 c-10 -12 -10 -15 0 -15 9 0 9 -4 -1 -17 -12 -14 -12 -16
1 -11 9 3 14 16 13 29 -1 13 1 18 3 11 3 -6 10 -10 15 -6 16 10 9 -13 -9 -29
-22 -20 -38 -22 -46 -4 -3 6 -4 3 -1 -9 6 -22 -32 -63 -53 -56 -7 2 -12 -3
-12 -12 0 -9 -4 -16 -8 -16 -5 0 -17 -7 -28 -16 -10 -8 -12 -12 -4 -8 13 7 13
6 1 -9 -8 -10 -16 -15 -19 -12 -3 3 -30 -19 -61 -48 -31 -29 -69 -63 -86 -75
-24 -19 -27 -25 -15 -32 8 -6 17 -10 20 -10 12 0 68 58 62 65 -4 4 0 5 8 4 8
-2 40 21 70 51 30 30 70 67 88 83 19 15 31 27 27 27 -3 0 15 19 42 42 26 23
48 46 48 51 0 5 -9 16 -21 24 -18 12 -23 11 -34 -2z m-150 -195 c0 -5 -5 -10
-11 -10 -5 0 -7 5 -4 10 3 6 8 10 11 10 2 0 4 -4 4 -10z"/>
<path d="M8920 5405 c-7 -8 -8 -15 -2 -15 5 0 15 7 22 15 7 8 8 15 2 15 -5 0
-15 -7 -22 -15z"/>
<path d="M4240 5266 c0 -2 7 -7 16 -10 8 -3 12 -2 9 4 -6 10 -25 14 -25 6z"/>
<path d="M8632 5131 c-15 -13 -18 -21 -10 -24 7 -3 3 -6 -10 -6 -12 -1 -25 -8
-28 -16 -4 -8 -10 -13 -14 -10 -5 3 -11 1 -14 -3 -3 -5 6 -14 19 -20 19 -9 23
-8 19 3 -3 8 3 16 15 20 12 3 24 17 27 31 4 17 10 22 18 16 6 -5 20 -6 31 -2
19 7 19 7 -2 18 -27 15 -23 15 -51 -7z"/>
<path d="M8528 5051 c-1 -5 -27 -25 -57 -45 -57 -37 -50 -53 19 -47 13 1 13 3
1 10 -8 5 -21 7 -30 4 -14 -4 -14 -3 -1 6 8 5 25 7 39 4 20 -5 22 -3 16 16 -4
12 -2 21 4 21 6 0 11 -5 11 -11 0 -5 5 -7 10 -4 6 4 8 10 5 15 -3 4 3 11 12
14 15 6 15 8 3 16 -19 12 -27 12 -32 1z"/>
<path d="M6493 4373 c9 -2 23 -2 30 0 6 3 -1 5 -18 5 -16 0 -22 -2 -12 -5z"/>
<path d="M6648 4363 c6 -2 18 -2 25 0 6 3 1 5 -13 5 -14 0 -19 -2 -12 -5z"/>
<path d="M7655 9009 c-175 -16 -384 -84 -525 -172 -75 -47 -82 -64 -12 -28
104 53 303 123 422 147 101 22 356 25 465 6 127 -21 318 -82 428 -135 102 -50
143 -63 74 -23 -205 119 -382 182 -577 206 -94 11 -143 11 -275 -1z"/>
<path d="M6955 8998 c-63 -22 -222 -138 -302 -219 -140 -143 -243 -320 -274
-469 -29 -141 -31 -166 -19 -290 7 -69 16 -131 20 -139 4 -7 8 38 9 100 1 63
6 141 10 174 l8 60 3 -60 c2 -33 5 -46 7 -30 2 17 11 62 19 101 9 40 14 78 11
85 -3 8 -6 2 -6 -13 -1 -16 -5 -28 -10 -28 -12 0 -2 39 16 65 7 11 13 31 14
45 0 14 3 19 6 13 7 -19 36 14 29 33 -9 24 4 66 20 60 8 -3 11 0 8 9 -6 14 54
115 68 115 5 0 8 5 8 10 0 25 255 287 335 345 47 34 64 48 53 44 -2 0 -16 -5
-33 -11z"/>
<path d="M7110 8920 c0 -5 5 -10 11 -10 5 0 7 5 4 10 -3 6 -8 10 -11 10 -2 0
-4 -4 -4 -10z"/>
<path d="M7048 8887 c-40 -23 -48 -37 -22 -37 8 0 13 4 10 8 -3 5 11 14 30 21
18 7 34 17 34 22 0 13 -11 11 -52 -14z"/>
<path d="M7025 8767 l-20 -20 25 13 c32 16 33 17 23 23 -4 2 -17 -5 -28 -16z"/>
<path d="M8760 8566 c0 -2 7 -7 16 -10 8 -3 12 -2 9 4 -6 10 -25 14 -25 6z"/>
<path d="M8800 8541 c0 -6 4 -11 8 -11 17 0 163 -151 156 -162 -4 -6 -3 -8 4
-4 6 3 19 -5 29 -18 91 -124 115 -159 145 -216 19 -36 47 -87 63 -115 38 -66
90 -223 118 -354 19 -93 22 -135 22 -341 -1 -257 10 -247 21 20 5 126 3 192
-10 278 -28 200 -126 454 -235 609 -82 117 -321 350 -321 314z"/>
<path d="M8828 8375 c9 -11 17 -21 18 -23 1 -2 4 4 8 13 4 11 2 14 -6 9 -7 -5
-9 -2 -6 7 4 10 -1 15 -13 15 -17 0 -17 -1 -1 -21z"/>
<path d="M9040 8200 c0 -5 5 -10 11 -10 5 0 7 5 4 10 -3 6 -8 10 -11 10 -2 0
-4 -4 -4 -10z"/>
<path d="M9064 8150 c0 -11 5 -19 11 -17 5 2 10 10 10 17 0 7 -5 15 -10 17 -6
2 -11 -6 -11 -17z"/>
<path d="M6412 8050 c0 -19 2 -27 5 -17 2 9 2 25 0 35 -3 9 -5 1 -5 -18z"/>
<path d="M9432 7385 c0 -16 2 -22 5 -12 2 9 2 23 0 30 -3 6 -5 -1 -5 -18z"/>
<path d="M9326 7049 c-3 -18 -4 -34 -2 -36 2 -3 7 10 11 27 4 17 5 34 2 36 -2
3 -7 -10 -11 -27z"/>
<path d="M9311 6974 c0 -11 3 -14 6 -6 3 7 2 16 -1 19 -3 4 -6 -2 -5 -13z"/>
<path d="M9241 6734 c0 -11 3 -14 6 -6 3 7 2 16 -1 19 -3 4 -6 -2 -5 -13z"/>
<path d="M8896 5842 c-2 -4 -1 -14 3 -21 6 -9 11 -10 15 -2 4 6 2 11 -4 11 -6
0 -8 5 -5 10 3 6 4 10 1 10 -3 0 -7 -4 -10 -8z"/>
<path d="M8772 5680 c-46 -49 -89 -87 -96 -84 -7 3 -19 -3 -26 -13 -12 -15
-12 -16 0 -5 26 23 34 12 9 -15 l-24 -27 30 21 c38 26 195 190 195 203 0 6 -1
10 -2 9 -2 0 -40 -40 -86 -89z"/>
<path d="M8600 5705 c-8 -9 -8 -15 -2 -15 12 0 26 19 19 26 -2 2 -10 -2 -17
-11z"/>
<path d="M7710 5120 c0 -5 5 -10 11 -10 5 0 7 5 4 10 -3 6 -8 10 -11 10 -2 0
-4 -4 -4 -10z"/>
<path d="M7608 5084 c-39 -21 -35 -28 5 -8 37 19 44 24 31 24 -5 -1 -21 -8
-36 -16z"/>
<path d="M7755 5000 c11 -5 27 -9 35 -9 13 -1 13 0 0 9 -8 5 -24 9 -35 9 l-20
0 20 -9z"/>
<path d="M7200 4990 c0 -5 5 -10 10 -10 6 0 10 5 10 10 0 6 -4 10 -10 10 -5 0
-10 -4 -10 -10z"/>
<path d="M7675 4990 c3 -5 8 -10 11 -10 2 0 4 5 4 10 0 6 -5 10 -11 10 -5 0
-7 -4 -4 -10z"/>
<path d="M6975 4971 c21 -10 72 -15 64 -6 -3 2 -23 7 -45 10 -28 3 -34 2 -19
-4z"/>
<path d="M7200 4932 c0 -12 67 -28 77 -18 10 9 2 14 -39 21 -25 5 -38 3 -38
-3z"/>
<path d="M7548 4933 c7 -3 16 -2 19 1 4 3 -2 6 -13 5 -11 0 -14 -3 -6 -6z"/>
<path d="M7405 4921 c-3 -5 0 -13 6 -17 7 -4 9 -3 5 4 -3 5 0 13 6 15 9 4 10
6 1 6 -6 1 -14 -3 -18 -8z"/>
<path d="M7441 4914 c0 -11 3 -14 6 -6 3 7 2 16 -1 19 -3 4 -6 -2 -5 -13z"/>
<path d="M7588 4923 c7 -3 16 -2 19 1 4 3 -2 6 -13 5 -11 0 -14 -3 -6 -6z"/>
<path d="M7272 4871 c-19 -12 8 -22 38 -14 16 4 18 8 8 14 -17 11 -29 11 -46
0z"/>
<path d="M7418 4873 c7 -3 16 -2 19 1 4 3 -2 6 -13 5 -11 0 -14 -3 -6 -6z"/>
<path d="M7355 4860 c-3 -5 -16 -11 -28 -11 -15 -1 -17 -3 -6 -6 9 -2 32 3 50
11 28 12 30 15 12 15 -12 1 -25 -3 -28 -9z"/>
<path d="M7060 4846 c0 -2 7 -6 15 -10 8 -3 15 -1 15 4 0 6 -7 10 -15 10 -8 0
-15 -2 -15 -4z"/>
<path d="M7230 4819 c0 -5 5 -7 10 -4 6 3 10 8 10 11 0 2 -4 4 -10 4 -5 0 -10
-5 -10 -11z"/>
<path d="M6960 4807 c0 -21 29 -29 65 -17 l30 9 -31 -2 c-17 -1 -39 5 -48 12
-14 11 -16 11 -16 -2z"/>
<path d="M7068 4783 c7 -3 16 -2 19 1 4 3 -2 6 -13 5 -11 0 -14 -3 -6 -6z"/>
<path d="M6938 4773 c7 -3 16 -2 19 1 4 3 -2 6 -13 5 -11 0 -14 -3 -6 -6z"/>
<path d="M7028 4773 c7 -3 16 -2 19 1 4 3 -2 6 -13 5 -11 0 -14 -3 -6 -6z"/>
<path d="M6940 4760 l-45 -7 40 -1 c22 0 49 3 60 8 23 10 9 10 -55 0z"/>
<path d="M14062 8190 c0 -14 2 -19 5 -12 2 6 2 18 0 25 -3 6 -5 1 -5 -13z"/>
<path d="M11465 2980 c-3 -5 -1 -10 4 -10 6 0 11 5 11 10 0 6 -2 10 -4 10 -3
0 -8 -4 -11 -10z"/>
<path d="M8795 1660 c-3 -5 -2 -10 4 -10 5 0 13 5 16 10 3 6 2 10 -4 10 -5 0
-13 -4 -16 -10z"/>
<path d="M8388 1543 c7 -3 16 -2 19 1 4 3 -2 6 -13 5 -11 0 -14 -3 -6 -6z"/>
<path d="M8175 1460 c-13 -5 -14 -9 -5 -9 8 0 24 4 35 9 13 5 14 9 5 9 -8 0
-24 -4 -35 -9z"/>
<path d="M5714 10368 c3 -10 9 -26 13 -35 6 -16 3 -15 -17 2 -20 17 -23 18
-17 3 4 -10 2 -18 -3 -18 -6 0 -10 -8 -10 -17 1 -17 1 -17 11 0 5 9 15 17 21
17 6 0 6 -7 -3 -17 -7 -11 -3 -9 10 3 22 21 22 23 6 50 -9 16 -14 21 -11 12z"/>
<path d="M7543 8213 c9 -2 25 -2 35 0 9 3 1 5 -18 5 -19 0 -27 -2 -17 -5z"/>
<path d="M7425 7009 c-4 -6 -5 -12 -2 -15 2 -3 7 2 10 11 7 17 1 20 -8 4z"/>
<path d="M6440 7235 c0 -2 18 -14 40 -25 50 -25 53 -19 4 9 -36 22 -44 24 -44
16z"/>
<path d="M11671 7201 c-8 -5 -9 -22 -2 -62 l9 -54 3 60 c2 53 3 55 6 18 5 -54
23 -57 23 -4 0 39 -16 56 -39 42z"/>
<path d="M11791 7014 c0 -11 3 -14 6 -6 3 7 2 16 -1 19 -3 4 -6 -2 -5 -13z"/>
<path d="M11762 6915 c0 -16 3 -39 8 -50 8 -18 9 -18 8 5 0 14 -4 36 -8 50 -8
24 -8 24 -8 -5z"/>
<path d="M9220 2700 c0 -5 7 -7 15 -4 8 4 15 8 15 10 0 2 -7 4 -15 4 -8 0 -15
-4 -15 -10z"/>
<path d="M9180 3080 c0 -23 8 -25 33 -6 24 18 21 26 -8 26 -18 0 -25 -5 -25
-20z"/>
<path d="M8892 2968 c-19 -5 -30 -13 -26 -19 4 -8 9 -7 14 1 4 7 12 10 16 8 5
-3 18 -2 28 2 31 11 4 18 -32 8z"/>
<path d="M8583 2845 c-50 -21 -39 -35 12 -16 25 9 45 19 45 23 0 12 -21 9 -57
-7z"/>
<path d="M8515 2750 c-3 -6 1 -7 9 -4 18 7 21 14 7 14 -6 0 -13 -4 -16 -10z"/>
<path d="M8480 2730 c0 -5 10 -10 23 -10 18 0 19 2 7 10 -19 13 -30 13 -30 0z"/>
<path d="M8800 2600 c0 -5 5 -10 11 -10 5 0 7 5 4 10 -3 6 -8 10 -11 10 -2 0
-4 -4 -4 -10z"/>
<path d="M6248 2593 c7 -3 16 -2 19 1 4 3 -2 6 -13 5 -11 0 -14 -3 -6 -6z"/>
<path d="M8420 2549 c-12 -8 -12 -9 5 -7 11 1 21 -2 23 -7 1 -6 -12 -10 -28
-11 -40 -1 -51 -14 -14 -16 75 -4 86 -3 90 4 3 4 13 8 23 8 10 0 24 6 31 14 6
8 26 17 43 19 27 3 25 4 -11 5 -24 1 -53 -5 -66 -13 -21 -14 -24 -14 -36 0
-14 17 -38 19 -60 4z"/>
<path d="M8623 2533 c9 -2 25 -2 35 0 9 3 1 5 -18 5 -19 0 -27 -2 -17 -5z"/>
<path d="M8718 2533 c7 -3 16 -2 19 1 4 3 -2 6 -13 5 -11 0 -14 -3 -6 -6z"/>
<path d="M8190 2520 c0 -5 5 -10 10 -10 6 0 10 5 10 10 0 6 -4 10 -10 10 -5 0
-10 -4 -10 -10z"/>
<path d="M8240 2521 c0 -10 50 -25 57 -17 3 2 2 9 -2 15 -8 13 -55 15 -55 2z"/>
<path d="M8618 2513 c12 -2 30 -2 40 0 9 3 -1 5 -23 4 -22 0 -30 -2 -17 -4z"/>
<path d="M8335 2480 c-7 -12 19 -24 37 -17 7 3 2 6 -12 7 -23 1 -23 2 -5 10
16 7 17 9 3 9 -9 1 -20 -4 -23 -9z"/>
<path d="M8170 2450 c-9 -6 -10 -10 -3 -10 6 0 15 5 18 10 8 12 4 12 -15 0z"/>
<path d="M8298 2453 c6 -2 18 -2 25 0 6 3 1 5 -13 5 -14 0 -19 -2 -12 -5z"/>
<path d="M7608 2363 c7 -3 16 -2 19 1 4 3 -2 6 -13 5 -11 0 -14 -3 -6 -6z"/>
<path d="M4370 2575 c0 -7 30 -13 34 -7 3 4 -4 9 -15 9 -10 1 -19 0 -19 -2z"/>
<path d="M10061 1673 c0 -5 4 -17 9 -28 8 -17 8 -16 7 8 -1 15 -5 27 -9 27 -4
0 -8 -3 -7 -7z"/>
<path d="M9990 1640 c-8 -5 -11 -12 -8 -16 10 -9 38 3 38 16 0 12 -10 13 -30
0z"/>
<path d="M10052 1613 c-6 -2 -10 -8 -8 -12 3 -4 -16 -8 -40 -9 -30 -1 -43 2
-38 9 4 7 -1 7 -15 -1 -16 -8 -26 -8 -35 -1 -9 8 -21 8 -37 2 -23 -10 -23 -10
6 -10 31 -1 25 -15 -10 -24 -15 -3 -13 -5 8 -6 16 0 35 6 44 14 10 10 23 13
37 9 30 -10 86 -6 101 6 6 5 15 7 19 3 4 -4 4 0 0 10 -6 18 -10 19 -32 10z"/>
<path d="M9790 1540 c0 -5 -6 -10 -14 -10 -16 0 -31 -18 -22 -27 9 -9 77 27
71 38 -8 12 -35 12 -35 -1z"/>
</g>
</svg>
